<svg width="294" height="60" viewBox="0 0 294 60" fill="none" xmlns="http://www.w3.org/2000/svg">
<rect x="1.5" y="-1.5" width="290.002" height="56.3737" rx="8.5" transform="matrix(1 0 0 -1 0.104492 56.5632)" fill="white" stroke="url(#paint0_linear_938_1845)" stroke-width="3"/>
<path d="M26.4531 13.0244C26.5216 12.956 26.5941 12.8919 26.6703 12.8323C26.9878 12.6067 27.3219 12.3979 27.6394 12.164C27.7229 12.1055 27.8315 11.9802 27.8148 11.8967C27.7981 11.8131 27.6644 11.7463 27.5725 11.7045C27.2969 11.6126 27.0212 11.5458 26.7372 11.4539C26.6468 11.4176 26.5601 11.3728 26.4782 11.3202C26.5534 11.2701 26.5784 11.2367 26.6118 11.2367C27.3884 11.1222 28.1805 11.1763 28.9342 11.3954C29.1264 11.4372 29.1431 11.5709 28.9843 11.6878C28.8256 11.8048 28.4581 12.047 28.1991 12.2475C28.1155 12.3143 28.0153 12.4564 28.032 12.5399C28.0558 12.5935 28.0914 12.6409 28.1363 12.6785C28.1812 12.7161 28.2341 12.743 28.291 12.7571C28.5667 12.8323 28.8507 12.8573 29.1264 12.9075C29.1987 12.9028 29.2712 12.9028 29.3436 12.9075C29.5441 12.9576 29.5775 13.0411 29.4355 13.1999C29.2934 13.3586 28.8925 13.7512 28.6001 14.0352C28.521 14.1493 28.4565 14.2728 28.4079 14.4028L28.4664 14.478C28.6024 14.463 28.7367 14.4351 28.8674 14.3945C29.1264 14.2859 29.377 14.1522 29.636 14.052C29.8949 13.9517 29.9618 14.052 29.92 14.2859C29.8782 14.5198 29.803 14.8205 29.7696 15.1212C29.7696 15.2131 29.8364 15.3217 29.8699 15.422C29.9701 15.3719 30.0954 15.3552 30.1622 15.2716C30.2291 15.1881 30.463 14.879 30.6134 14.6868C30.6635 14.6284 30.747 14.6117 30.8138 14.5699C30.8489 14.6393 30.8769 14.7121 30.8974 14.7871C30.8974 15.0544 30.8974 15.3301 30.9559 15.6225C30.9986 15.7448 31.0638 15.8581 31.148 15.9566C31.2536 15.8573 31.3462 15.745 31.4237 15.6225C31.4989 15.4387 31.5239 15.2215 31.5824 15.0294C31.6329 14.9005 31.6915 14.7749 31.7578 14.6534C31.8998 14.8456 31.9917 14.9959 32.1087 15.1296C32.2061 15.2148 32.3093 15.293 32.4178 15.3635C32.4973 15.248 32.5592 15.1213 32.6016 14.9876C32.6016 14.7871 32.6016 14.5699 32.6016 14.3193C33.1947 14.5114 33.437 15.1547 34.0886 15.305C34.0838 15.1581 34.0614 15.0122 34.0217 14.8706C33.9131 14.5615 33.7795 14.2608 33.6542 13.9517C33.6133 13.8541 33.5798 13.7536 33.5539 13.651C33.4954 13.3168 33.6124 13.2166 33.9382 13.3252L34.7736 13.6092C34.8808 13.6501 34.9933 13.6754 35.1077 13.6844C35.1629 13.6825 35.2171 13.6698 35.2673 13.6468C35.3175 13.6239 35.3626 13.5912 35.4001 13.5507C35.4123 13.502 35.4134 13.4512 35.4033 13.402C35.3932 13.3529 35.3721 13.3066 35.3416 13.2667C35.0576 12.9242 34.7652 12.5984 34.5063 12.2642C34.2473 11.9301 34.0969 11.7713 34.665 11.5625C35.2884 11.3263 35.9539 11.2211 36.6198 11.2534C36.6498 11.2448 36.6816 11.2448 36.7117 11.2534C36.7117 11.2534 36.7117 11.2534 36.7952 11.3202L36.5362 11.4623C36.2021 11.6126 35.8596 11.7379 35.5421 11.905C35.2247 12.0721 35.208 12.2225 35.4335 12.4898L36.7451 13.9684C36.8014 14.0158 36.8494 14.0723 36.8871 14.1355C36.8871 14.2441 36.9706 14.4112 36.8871 14.4696C36.8406 14.5097 36.7856 14.5387 36.7263 14.5546C36.667 14.5705 36.6049 14.5729 36.5446 14.5615C36.1687 14.478 35.8011 14.361 35.4335 14.2524C35.2394 14.1825 35.0414 14.1239 34.8404 14.077C34.7067 14.077 34.4895 14.077 34.4394 14.1188C34.385 14.2556 34.385 14.408 34.4394 14.5448C34.6149 15.0126 34.8153 15.4638 34.9991 15.9149C35.0464 16.0205 35.0747 16.1336 35.0827 16.249C35.0827 16.3493 35.0827 16.4913 34.9991 16.5247C34.9493 16.5389 34.8967 16.541 34.8459 16.5309C34.795 16.5207 34.7473 16.4985 34.7067 16.4662C34.4979 16.3242 34.2974 16.1655 34.0969 16.0068C33.8964 15.848 33.6207 15.6308 33.3701 15.4554C33.1195 15.28 32.9441 15.3468 32.8605 15.6225C32.777 15.8982 32.7937 15.965 32.7436 16.1321C32.6935 16.2991 32.6768 16.3242 32.6099 16.3409C32.5431 16.3576 32.4596 16.2824 32.4011 16.224C32.3426 16.1655 32.2173 16.0151 32.117 15.9149C32.0168 15.8146 31.7662 15.7645 31.6826 16.0068C31.5573 16.391 31.4487 16.7753 31.3318 17.1679C31.2876 17.3158 31.2346 17.4609 31.1731 17.6023C31.1731 17.6775 31.0478 17.7277 30.9809 17.7945C30.9224 17.7193 30.8222 17.6525 30.8055 17.5773C30.7387 17.2264 30.7052 16.8756 30.6301 16.5331C30.6301 16.3409 30.5465 16.0819 30.4129 15.9901C30.2792 15.8982 30.0787 16.1237 29.9283 16.2323C29.8091 16.3323 29.6836 16.4244 29.5524 16.508C29.3018 16.6249 29.1431 16.508 29.1598 16.249C29.1765 15.9901 29.2183 15.6225 29.2433 15.3134C29.2684 15.0043 29.0846 14.8038 28.7504 14.9792C28.2743 15.2131 27.8148 15.4638 27.3386 15.6977C27.1926 15.7734 27.0385 15.8322 26.8792 15.8731C26.8395 15.8834 26.798 15.8851 26.7576 15.8778C26.7173 15.8706 26.6789 15.8548 26.6453 15.8313C26.6453 15.8313 26.6453 15.6726 26.6453 15.6141C26.8463 15.3789 27.0611 15.1557 27.2885 14.9458C27.6227 14.5532 27.9735 14.1773 28.3077 13.7763C28.3912 13.676 28.4831 13.4839 28.4413 13.4254C28.3426 13.3216 28.2084 13.259 28.0654 13.25C27.6811 13.25 27.2969 13.25 26.9126 13.1999C26.7575 13.18 26.6039 13.1493 26.4531 13.108C26.457 13.0803 26.457 13.0521 26.4531 13.0244Z" fill="#26245D"/>
<path d="M32.8525 36.6659C33.8801 36.716 34.6486 36.4571 34.7238 35.2792C34.8203 35.3301 34.9125 35.3888 34.9995 35.4546C35.313 35.696 35.5389 36.0334 35.6427 36.4153C35.6645 36.5161 35.7159 36.6082 35.7903 36.6796C35.8647 36.7511 35.9588 36.7986 36.0604 36.8163C36.3117 36.9165 36.5916 36.9169 36.8432 36.8175C37.0947 36.7182 37.2988 36.5265 37.4138 36.2816C37.4996 36.1893 37.6095 36.1227 37.7312 36.0895C37.9818 35.9893 38.2408 35.9475 38.483 35.8389C38.7527 35.7231 38.9961 35.5538 39.1986 35.3413C39.401 35.1288 39.5583 34.8775 39.6609 34.6025C39.7278 34.4104 39.8197 34.3937 39.97 34.5023C40.1581 34.6611 40.3593 34.8036 40.5715 34.9283C40.714 35.0012 40.871 35.0412 41.031 35.0453C41.432 35.0954 41.8664 35.1037 42.2506 35.1622C42.3166 35.1796 42.386 35.1795 42.4519 35.1619C42.5178 35.1444 42.578 35.1099 42.6266 35.062C42.802 34.8865 42.8605 34.9116 42.9691 35.1455C43.0402 35.3007 43.1299 35.4465 43.2364 35.5799C43.4035 35.7804 43.3784 35.8556 43.1529 35.9642C43.0192 36.0312 42.9108 36.1396 42.8438 36.2733C42.7352 36.4905 42.6934 36.7411 42.6015 36.9667C42.574 37.0667 42.5255 37.1596 42.4592 37.2393C42.3928 37.319 42.3102 37.3835 42.2168 37.4286C42.1234 37.4738 42.0215 37.4984 41.9178 37.5008C41.8141 37.5032 41.7111 37.4835 41.6157 37.4428C41.2656 37.3377 40.9676 37.1052 40.7804 36.7912C40.6718 36.6242 40.5882 36.4487 40.488 36.2733C40.458 36.2074 40.413 36.1496 40.3565 36.1044C40.3 36.0593 40.2336 36.0281 40.1628 36.0135C40.092 35.9988 40.0187 36.0011 39.9489 36.0201C39.8791 36.0391 39.8148 36.0744 39.7612 36.1229C39.6554 36.2026 39.555 36.2891 39.4604 36.3819C39.0896 36.7355 38.647 37.0052 38.1626 37.1724C37.6783 37.3396 37.1636 37.4005 36.6535 37.3509C36.5314 37.3382 36.4082 37.3382 36.286 37.3509C36.2813 37.3786 36.2813 37.4068 36.286 37.4345C36.3612 37.5013 36.428 37.5932 36.5115 37.6183C36.7797 37.7208 37.0609 37.7855 37.3469 37.8104C37.7873 37.8307 38.2274 37.7636 38.6417 37.6131C39.0561 37.4625 39.4365 37.2315 39.7612 36.9332C39.9867 36.7244 40.0786 36.7328 40.2123 36.9917C40.4013 37.3658 40.6961 37.676 41.06 37.8839C41.4238 38.0919 41.8408 38.1883 42.259 38.1613H42.8354C42.8339 38.1891 42.8339 38.217 42.8354 38.2448C42.7435 38.32 42.66 38.4536 42.5597 38.4704C42.1452 38.5616 41.7227 38.6119 41.2983 38.6207C41.0605 38.5917 40.8367 38.4929 40.6551 38.3367C40.608 38.2811 40.5428 38.2438 40.4709 38.2316C40.3991 38.2194 40.3252 38.2329 40.2624 38.2699C39.3377 38.7614 38.2651 38.8981 37.2467 38.6541C36.6507 38.4941 36.0954 38.2093 35.6177 37.8188C35.2509 37.5485 34.8115 37.3943 34.3562 37.376C34.0697 37.3705 33.7875 37.3044 33.5283 37.182C33.2692 37.0596 33.0388 36.8837 32.8525 36.6659ZM42.142 36.0728C42.1311 35.9449 42.0758 35.8249 41.9858 35.7334C41.8959 35.6419 41.7768 35.5847 41.6492 35.5716C41.5244 35.5828 41.4076 35.6375 41.3191 35.726C41.2305 35.8145 41.1759 35.9314 41.1646 36.0561C41.1635 36.12 41.1753 36.1835 41.1992 36.2428C41.2232 36.3021 41.2588 36.356 41.304 36.4012C41.3493 36.4464 41.4031 36.4821 41.4624 36.506C41.5217 36.53 41.5852 36.5417 41.6492 36.5406C41.7745 36.5369 41.894 36.4872 41.985 36.4009C42.0759 36.3145 42.1318 36.1977 42.142 36.0728Z" fill="#26245D"/>
<path d="M51.8733 22.5228C51.8733 22.7567 51.8315 22.9823 51.7981 23.2162C51.7647 23.4501 51.7146 23.6005 51.6895 23.7926C51.6771 23.914 51.6913 24.0366 51.7313 24.1518C51.89 24.603 52.1323 24.6364 52.433 24.2771C52.6031 24.1037 52.7279 23.8909 52.7962 23.6578C52.8645 23.4246 52.8743 23.1782 52.8248 22.9404C52.7752 22.7025 52.6678 22.4805 52.5121 22.2941C52.3563 22.1076 52.157 21.9624 51.9318 21.8712C51.8017 21.8077 51.6589 21.7747 51.5141 21.7747C51.3693 21.7747 51.2265 21.8077 51.0964 21.8712C50.5572 22.1048 49.9704 22.2079 49.3839 22.172C48.864 22.1633 48.3612 21.9846 47.9524 21.6633C47.5436 21.342 47.2513 20.8957 47.12 20.3926C47.0057 20.0162 46.9109 19.6342 46.8359 19.2481L46.9195 19.198C47.4826 19.3957 48.0883 19.4389 48.6738 19.3233C49.1124 19.2589 49.5603 19.3252 49.9614 19.5139C50.3626 19.7026 50.6992 20.0053 50.9293 20.3842C51.0296 20.5346 51.1632 20.6599 51.2551 20.8186C51.4496 21.1049 51.7104 21.3399 52.0153 21.5037C52.2977 21.6416 52.5424 21.8459 52.7286 22.0991C52.9148 22.3522 53.037 22.6466 53.0846 22.9572C53.1559 23.3595 53.0659 23.7737 52.834 24.1101C52.5918 24.4776 52.3328 24.8285 52.0905 25.1961C51.8483 25.5636 51.7814 25.714 51.6394 25.9897C51.6394 26.0565 51.6394 26.1568 51.6394 26.2403C51.7316 26.2397 51.8227 26.2198 51.9067 26.1818C52.0738 26.0398 52.2242 25.8727 52.3829 25.7224C52.4605 25.6459 52.5443 25.576 52.6335 25.5135C52.9008 25.3464 53.1097 25.4467 53.1348 25.7558C53.1444 26.0283 53.0998 26.3001 53.0038 26.5553C52.9077 26.8105 52.762 27.0442 52.575 27.2428L52.4581 26.8836C52.4386 26.7895 52.392 26.7031 52.324 26.6352C52.2561 26.5672 52.1697 26.5206 52.0756 26.5011C51.9816 26.4815 51.8838 26.4899 51.7944 26.5252C51.705 26.5606 51.6279 26.6212 51.5726 26.6998C51.3974 26.9181 51.2356 27.1469 51.0881 27.3848C51.0296 27.2595 50.9878 27.1676 50.9544 27.0757C50.7632 26.4426 50.4511 25.8525 50.0355 25.3381C49.7374 24.973 49.3306 24.7125 48.8743 24.5946C48.5836 24.5203 48.3031 24.4109 48.0389 24.2688C47.9631 24.2202 47.8981 24.1565 47.8478 24.0818C47.7975 24.0071 47.763 23.9229 47.7465 23.8344C47.7465 23.3916 47.8551 22.999 47.9136 22.5228H48.0055C48.1391 22.6732 48.3313 22.8152 48.3898 22.9907C48.6477 23.7428 49.1395 24.3926 49.7932 24.8452C50.2763 25.2361 50.6408 25.7539 50.8458 26.3406C50.9051 26.4471 50.9781 26.5454 51.063 26.6329H51.1549C51.1671 26.5359 51.1671 26.4376 51.1549 26.3406C51.044 25.7556 50.7948 25.2057 50.4281 24.7366C49.9519 24.1686 49.4758 23.5838 48.9996 22.999C49.237 22.9645 49.4794 23.0007 49.6964 23.1032C49.9133 23.2058 50.0952 23.37 50.2193 23.5754C50.5367 24.3523 50.8374 25.1292 51.1549 25.9062C51.1989 25.9905 51.2492 26.0715 51.3053 26.1484C51.3898 26.0929 51.4657 26.0253 51.5308 25.9479C51.6979 25.6555 51.8399 25.3548 51.9986 25.0541C52.0822 24.8953 51.9986 24.8202 51.8733 24.7366C51.5844 24.5753 51.3054 24.3968 51.0379 24.202C50.9258 24.1147 50.8471 23.9915 50.8151 23.853C50.7832 23.7146 50.7999 23.5693 50.8625 23.4418C50.9524 23.2337 51.0899 23.0496 51.2641 22.9045C51.4382 22.7594 51.6441 22.6572 51.865 22.6064M49.8433 21.0609V21.1444C49.7523 21.2539 49.6712 21.3714 49.6011 21.4953C49.5799 21.5888 49.5799 21.6858 49.6011 21.7793C49.7013 21.7793 49.8433 21.7793 49.9018 21.7793C50.0088 21.6487 50.1491 21.5494 50.308 21.492C50.4668 21.4347 50.6382 21.4214 50.804 21.4535C50.8472 21.4586 50.8908 21.4519 50.9305 21.4343C50.9702 21.4167 51.0044 21.3887 51.0296 21.3533C51.0296 21.2948 51.0296 21.1695 50.9544 21.1194C50.8153 21.027 50.6998 20.9033 50.6171 20.7582C50.5344 20.6132 50.4869 20.4508 50.4782 20.284C50.4782 20.2255 50.3696 20.1336 50.3111 20.142C50.2701 20.1487 50.2311 20.1642 50.1965 20.1872C50.1619 20.2103 50.1327 20.2404 50.1107 20.2756C50.0689 20.3258 50.1107 20.4177 50.0689 20.4845C50.0271 20.5513 49.977 20.6933 49.8433 20.5931C49.7708 20.5279 49.7088 20.4518 49.6595 20.3675C49.5786 20.2071 49.4894 20.0509 49.3922 19.8997C49.3629 19.8648 49.3255 19.8374 49.2833 19.82C49.2412 19.8025 49.1954 19.7955 49.15 19.7995C49.0998 19.7995 49.0664 19.9331 49.0414 20.0167C49.0163 20.1002 49.0414 20.1169 49.0414 20.1587C49.0414 20.2005 48.9912 20.3174 48.9662 20.401C48.8956 20.3688 48.8284 20.3296 48.7657 20.284C48.6153 20.1503 48.49 20 48.348 19.8663C48.3168 19.8508 48.2825 19.8428 48.2477 19.8428C48.213 19.8428 48.1787 19.8508 48.1475 19.8663C48.1057 19.8663 48.0556 20.0083 48.0807 20.0501C48.2812 20.3926 48.206 20.5597 47.7966 20.5847C47.7298 20.5847 47.663 20.7435 47.5961 20.8354C47.688 20.8354 47.7799 20.9523 47.8635 20.9523C48.0807 20.9523 48.2895 20.9523 48.4984 20.8938C48.5873 20.8872 48.6767 20.8872 48.7657 20.8938L48.4148 21.4201L48.4649 21.512C48.6033 21.5096 48.7408 21.4899 48.8743 21.4535C49.0581 21.3784 49.2251 21.2447 49.4173 21.1612C49.5446 21.1169 49.6762 21.0861 49.8099 21.0693" fill="#26245D"/>
<path d="M30.3546 23.534C30.3707 23.6531 30.3707 23.774 30.3546 23.8932C30.2026 24.7204 29.9206 25.5183 29.5192 26.2573C29.2769 26.7335 29.0347 27.2097 28.8007 27.6942C28.7282 27.8408 28.664 27.9914 28.6086 28.1453C28.4943 28.3662 28.4544 28.6182 28.4951 28.8636C28.5357 29.109 28.6547 29.3347 28.8342 29.507C28.6799 29.5395 28.5197 29.5277 28.3718 29.4731C28.224 29.4184 28.0947 29.323 27.9988 29.1979C27.7482 28.964 27.7231 28.9807 27.6061 29.2981C27.4834 29.5662 27.4546 29.8678 27.5243 30.1542C27.594 30.4407 27.7582 30.6953 27.9904 30.877C28.2076 31.0691 28.4081 31.278 28.6086 31.4868C28.756 31.6263 28.8567 31.8079 28.8971 32.0067C28.9375 32.2056 28.9155 32.412 28.8342 32.5979C28.8342 32.7232 28.7423 32.8068 28.6003 32.7149C28.2033 32.5135 27.8599 32.2206 27.5985 31.8604C27.337 31.5002 27.165 31.0829 27.0966 30.6431C27.01 29.8498 27.2051 29.0514 27.6479 28.3876C27.9236 27.9364 28.2243 27.5104 28.4833 27.0593C28.7423 26.6082 28.6921 26.5664 28.4165 26.2239C28.2912 26.0819 28.1659 25.9315 28.0322 25.8062C27.9966 25.7611 27.9498 25.7261 27.8964 25.7049C27.843 25.6837 27.7849 25.677 27.7281 25.6855C27.6712 25.694 27.6177 25.7173 27.5728 25.7532C27.5279 25.7891 27.4933 25.8362 27.4725 25.8897C27.4046 25.9895 27.3683 26.1074 27.3683 26.2281C27.3683 26.3488 27.4046 26.4666 27.4725 26.5664C27.5735 26.6821 27.6292 26.8305 27.6292 26.9841C27.6292 27.1377 27.5735 27.2861 27.4725 27.4018C27.379 27.5478 27.2757 27.6874 27.1634 27.8195C26.988 28.0033 26.8042 27.9782 26.729 27.736C26.3228 26.5272 26.3228 25.2188 26.729 24.0101C26.7685 23.9294 26.8132 23.8513 26.8627 23.7762H26.9378C26.9378 23.8681 26.9378 23.96 26.9378 24.0519C26.9378 24.3443 26.9378 24.6283 26.9378 24.8873C26.9378 24.9959 27.0798 25.0878 27.155 25.1797C27.2386 25.0961 27.3806 25.0293 27.4056 24.9291C27.5143 24.5281 27.5811 24.0937 27.6813 23.701C27.7123 23.5568 27.7599 23.4166 27.8233 23.2833C27.8233 23.2082 27.9654 23.1664 28.0322 23.1079C28.0322 23.1998 28.1491 23.2917 28.1408 23.3836C28.1141 23.6277 28.075 23.8702 28.0238 24.1104C28.0238 24.3693 27.9319 24.62 27.9236 24.8706C27.9236 24.9625 28.0238 25.0711 28.074 25.163C28.1575 25.0961 28.2828 25.0293 28.3162 24.9374C28.5418 24.3861 28.7506 23.818 28.9678 23.2666C28.9895 23.196 29.0204 23.1286 29.0597 23.0661C29.1243 23.0094 29.1943 22.9591 29.2686 22.9158C29.2686 22.9993 29.3605 23.0996 29.3437 23.1747C29.1822 23.7595 29.0152 24.3443 28.8425 24.9291C28.803 25.0343 28.775 25.1436 28.759 25.2549C28.7762 25.3466 28.8102 25.4344 28.8592 25.5138C28.9428 25.5138 29.0597 25.4553 29.0931 25.3885C29.3605 24.904 29.6111 24.4195 29.8617 23.9266L30.0872 23.4838H30.2126" fill="#26245D"/>
<path d="M42.2251 14.2192L42.6846 13.8683C42.9519 13.6595 42.9435 13.4673 42.6846 13.2919C42.5593 13.2167 42.4256 13.1582 42.2335 13.058C42.3922 12.9494 42.5091 12.8658 42.6261 12.799C42.8934 12.6403 42.9185 12.54 42.7514 12.2811L42.2669 11.5292V11.4624C42.3421 11.4624 42.4256 11.4624 42.5008 11.5292C42.7013 11.6211 42.8934 11.7381 43.0939 11.83C43.2944 11.9219 43.4782 11.8717 43.5199 11.5961L43.5701 11.2535H43.662C43.9711 11.6044 44.3136 11.5459 44.7062 11.3956C45.2022 11.1957 45.7483 11.1559 46.2681 11.2817C46.7879 11.4075 47.2553 11.6927 47.605 12.0973C47.8735 12.4526 48.0351 12.8772 48.0706 13.3211C48.1061 13.7651 48.0141 14.21 47.8055 14.6034C47.6273 14.9925 47.3378 15.3201 46.9735 15.5446C46.6092 15.7691 46.1864 15.8806 45.7588 15.8649C45.2988 15.8704 44.8458 15.7521 44.4472 15.5224C44.0462 15.2968 44.0379 15.2968 43.7288 15.6393C43.7288 15.6393 43.6703 15.6894 43.6202 15.7396L43.4865 15.2968C43.403 15.0295 43.2693 14.9877 43.0521 15.1548L42.6261 15.5224L42.4423 15.656L42.3755 15.6059C42.4674 15.4305 42.5593 15.255 42.6595 15.0796L42.8182 14.7789C42.8419 14.7474 42.8569 14.7103 42.8618 14.6712C42.8667 14.6321 42.8613 14.5925 42.8461 14.5561C42.8309 14.5198 42.8064 14.4881 42.7751 14.4642C42.7439 14.4402 42.7069 14.4249 42.6679 14.4197C42.5258 14.3695 42.3838 14.3361 42.2418 14.2943V14.2192M45.4748 14.8708L45.4163 14.9292L45.1991 14.8457C45.048 14.7657 44.8917 14.6959 44.7313 14.6369C44.6709 14.6277 44.6093 14.6312 44.5504 14.647C44.4915 14.6628 44.4364 14.6907 44.3887 14.7288C44.2718 14.8457 44.3887 14.9627 44.489 15.0546C44.7703 15.2994 45.1254 15.4431 45.4978 15.4628C45.8702 15.4825 46.2385 15.377 46.544 15.1632C46.7736 14.9686 46.9609 14.7292 47.0945 14.4595C47.2281 14.1899 47.305 13.8958 47.3207 13.5953C47.3363 13.2948 47.2903 12.9943 47.1855 12.7123C47.0807 12.4302 46.9192 12.1726 46.7111 11.9553C46.4247 11.7113 46.0643 11.5711 45.6883 11.5575C45.3123 11.5438 44.9427 11.6575 44.6394 11.8801C44.5558 11.9553 44.4806 12.1474 44.5224 12.2059C44.616 12.2926 44.7375 12.3429 44.8649 12.3479C45.012 12.3293 45.1573 12.2986 45.2993 12.256C45.3939 12.2508 45.4887 12.2508 45.5834 12.256C45.5834 12.3563 45.5332 12.4147 45.5082 12.4732C45.3996 12.7238 45.4413 12.8241 45.7003 12.8742C45.9593 12.9243 46.0595 12.8742 46.2433 12.9327C46.3211 12.9246 46.3995 12.9246 46.4772 12.9327C46.3455 13.0414 46.1993 13.1314 46.0428 13.2C45.6836 13.3671 45.6669 13.4673 45.9509 13.7346L46.3352 14.1189V14.2025L45.6418 14.1356C45.3829 14.1356 45.2826 14.2275 45.3578 14.4698C45.433 14.712 45.458 14.7288 45.5082 14.8541M44.6728 13.1833C44.7313 13.083 44.7814 13.0079 44.8148 12.9327C44.8482 12.8575 44.8148 12.657 44.6477 12.7238C44.347 12.8658 44.23 12.7238 44.1465 12.4732C44.0629 12.2226 43.9794 12.2978 43.8792 12.4732C43.8428 12.5168 43.8171 12.5683 43.804 12.6236C43.7455 12.8241 43.6536 12.9243 43.4281 12.8491C43.3904 12.8424 43.3517 12.8449 43.3153 12.8566C43.2789 12.8682 43.2459 12.8886 43.2192 12.916C43.2123 12.955 43.2131 12.995 43.2217 13.0337C43.2303 13.0725 43.2465 13.1091 43.2693 13.1415C43.3328 13.2299 43.4056 13.3111 43.4865 13.3838L43.144 13.8683C43.2499 13.9059 43.3589 13.9339 43.4698 13.9518C43.6369 13.9518 43.7037 14.002 43.7037 14.1774C43.7176 14.2981 43.7486 14.4162 43.7956 14.5283C43.8875 14.4781 43.9794 14.4531 44.0128 14.403C44.034 14.349 44.0671 14.3006 44.1097 14.2612C44.1523 14.2219 44.2032 14.1927 44.2586 14.1758C44.314 14.159 44.3726 14.1548 44.4298 14.1638C44.4871 14.1727 44.5416 14.1945 44.5892 14.2275C44.7396 14.3027 44.8315 14.2275 44.7814 14.0103C44.7525 13.9223 44.719 13.8359 44.6811 13.7513C44.7691 13.736 44.8557 13.7137 44.9401 13.6845C45.0122 13.6419 45.0795 13.5915 45.1406 13.5341C45.0894 13.4663 45.0336 13.4021 44.9735 13.342C44.8768 13.2923 44.7762 13.2504 44.6728 13.2167" fill="#26245D"/>
<path d="M45.3572 31.9631C45.3304 32.3509 45.2139 32.7271 45.0167 33.062C44.8195 33.3969 44.5471 33.6813 44.2211 33.8929C43.7845 34.1817 43.2767 34.3447 42.7535 34.3639C42.2304 34.383 41.712 34.2576 41.2555 34.0015C40.7932 33.769 40.4065 33.4101 40.1403 32.9664C39.8741 32.5227 39.7393 32.0126 39.7518 31.4953C39.7361 30.7204 40.0278 29.9709 40.5631 29.4104C41.0985 28.85 41.834 28.5244 42.6088 28.5046C42.8537 28.5204 43.0968 28.5567 43.3356 28.6132C43.3941 28.6132 43.4442 28.6884 43.5027 28.7218V28.8054C43.3761 28.8305 43.2528 28.8697 43.1351 28.9223C43.0434 28.9881 42.9568 29.0607 42.8761 29.1395C42.95 29.2007 43.0282 29.2565 43.11 29.3066C43.252 29.3651 43.4275 29.4152 43.3773 29.5906C43.3272 29.7661 43.1769 29.7577 43.0599 29.7744C42.8009 29.7744 42.5336 29.7744 42.2746 29.8246C42.0157 29.8747 41.9238 30.0083 42.0909 30.2255C42.2579 30.4427 42.2078 30.5263 41.9822 30.6182L41.3557 30.8354C41.1908 30.8875 41.0387 30.9738 40.9095 31.0888C40.7802 31.2037 40.6767 31.3447 40.6057 31.5024C40.5347 31.6602 40.4979 31.8311 40.4976 32.0041C40.4972 32.1771 40.5335 32.3481 40.6039 32.5061C40.8046 32.9483 41.1393 33.316 41.5605 33.5574C41.9818 33.7988 42.4684 33.9016 42.9513 33.8511C43.2545 33.8494 43.5485 33.7465 43.7867 33.5587C43.9705 33.3917 43.9621 33.2831 43.7449 33.1661C43.5277 33.0491 43.6196 33.0324 43.653 32.9071C43.6639 32.8597 43.6644 32.8104 43.6543 32.7628C43.6442 32.7152 43.6238 32.6704 43.5945 32.6314C43.5497 32.6121 43.5014 32.6022 43.4525 32.6022C43.4037 32.6022 43.3554 32.6121 43.3105 32.6314C43.0432 32.6983 42.7926 32.8152 42.5253 32.857C42.2959 32.9102 42.0561 32.8967 41.8342 32.8183C41.6122 32.7399 41.4172 32.5997 41.2722 32.4142C41.1636 32.2806 41.1552 32.1553 41.3557 32.1302C41.5562 32.1052 41.6147 31.9882 41.6397 31.8044C41.6648 31.6206 41.7567 31.5538 41.9154 31.6875C42.3976 32.0229 42.9569 32.231 43.5411 32.2924C44.1253 32.3537 44.7156 32.2663 45.257 32.0383L45.399 31.9966" fill="#26245D"/>
<path d="M48.0476 15.4807C48.1882 15.438 48.3174 15.3645 48.4259 15.2654C48.5344 15.1663 48.6194 15.0443 48.6747 14.9081C48.7299 14.772 48.754 14.6252 48.7453 14.4786C48.7365 14.3319 48.6951 14.1891 48.624 14.0605H48.7075C48.8328 14.1691 48.9581 14.2861 49.0918 14.3863C49.1981 14.4951 49.3321 14.5729 49.4793 14.6112C49.6265 14.6494 49.7814 14.6468 49.9272 14.6035C50.0194 14.5795 50.1033 14.5309 50.17 14.4629C50.2367 14.3949 50.2837 14.3101 50.306 14.2175C50.3283 14.1249 50.325 14.0279 50.2966 13.937C50.2681 13.8461 50.2155 13.7647 50.1444 13.7013C49.9177 13.5143 49.6642 13.3623 49.3925 13.2502C49.1397 13.1464 48.8802 13.0599 48.6156 12.9912C48.6198 12.9635 48.6198 12.9354 48.6156 12.9077L49.71 12.6738C49.7936 12.6473 49.8726 12.6078 49.9439 12.5568C49.9142 12.4781 49.8719 12.4048 49.8186 12.3396C49.4654 11.9811 49.0203 11.7267 48.5321 11.6045L48.2397 11.5293C48.2991 11.4877 48.3637 11.454 48.4319 11.429C49.0072 11.2818 49.6048 11.2422 50.1945 11.3121C50.3244 11.3345 50.4508 11.3738 50.5704 11.429C50.6283 11.4446 50.6821 11.4723 50.7283 11.5105C50.7744 11.5486 50.8119 11.5962 50.838 11.6501C50.8642 11.704 50.8784 11.7629 50.8798 11.8227C50.8812 11.8826 50.8697 11.9421 50.8461 11.9971C50.7876 12.2561 50.7292 12.5151 50.6874 12.774C50.6766 12.8328 50.6785 12.8931 50.693 12.9511C50.7075 13.009 50.7343 13.0631 50.7715 13.1099C50.8087 13.1566 50.8555 13.1948 50.9087 13.2218C50.9619 13.2489 51.0204 13.2643 51.08 13.2669C51.1371 13.2783 51.196 13.2767 51.2524 13.262C51.3087 13.2473 51.3609 13.2201 51.4052 13.1823C51.4494 13.1444 51.4845 13.0971 51.5078 13.0437C51.531 12.9904 51.5419 12.9324 51.5395 12.8743C51.5395 12.5485 51.5395 12.2143 51.5395 11.8885C51.5261 11.7943 51.5353 11.6983 51.5662 11.6083C51.5971 11.5183 51.649 11.4369 51.7175 11.3709C51.786 11.3049 51.8692 11.256 51.9602 11.2283C52.0513 11.2007 52.1476 11.195 52.2412 11.2118C52.4915 11.2451 52.7398 11.2925 52.9847 11.3539C52.5837 11.7465 52.7174 12.1308 52.826 12.5234C52.9539 12.9682 52.9881 13.4347 52.9262 13.8934C52.8965 14.11 52.8226 14.3182 52.709 14.505C52.5955 14.6918 52.4448 14.8533 52.2663 14.9794C51.7099 15.3678 51.0485 15.5776 50.3699 15.5809C49.6265 15.5809 48.8746 15.5809 48.1311 15.5308C48.1311 15.5308 48.0893 15.5308 48.0142 15.464M50.3115 14.7455V14.8124C50.4227 14.8833 50.5482 14.9289 50.679 14.946C50.9608 14.9206 51.2401 14.8731 51.5144 14.804C51.8519 14.7206 52.1482 14.5191 52.3498 14.2359C52.4792 14.0846 52.5504 13.8921 52.5504 13.6929C52.5504 13.4938 52.4792 13.3013 52.3498 13.1499C52.3202 13.1176 52.284 13.0919 52.2437 13.0746C52.2033 13.0573 52.1598 13.0488 52.1159 13.0497C52.0764 13.0683 52.042 13.0963 52.0158 13.1312C51.9896 13.1662 51.9723 13.207 51.9655 13.2502C51.9102 13.5782 51.7582 13.8822 51.529 14.1233C51.2998 14.3644 51.0038 14.5316 50.679 14.6035C50.5704 14.6453 50.4618 14.7121 50.3616 14.7622M51.9238 11.7381C51.9191 11.8285 51.9495 11.9172 52.0086 11.9857C52.0678 12.0542 52.1511 12.0972 52.2412 12.1057C52.3916 12.1057 52.5837 11.9052 52.567 11.7632C52.5627 11.6797 52.5265 11.6011 52.4659 11.5436C52.4052 11.486 52.3248 11.454 52.2412 11.4541C52.2017 11.4519 52.1621 11.4574 52.1248 11.4705C52.0874 11.4835 52.053 11.5039 52.0235 11.5302C51.994 11.5566 51.9701 11.5886 51.9529 11.6242C51.9358 11.6599 51.9259 11.6986 51.9238 11.7381Z" fill="#26245D"/>
<path d="M36.653 22.5399C36.5325 22.3409 36.3549 22.1828 36.1434 22.086C35.9319 21.9892 35.6962 21.9581 35.4668 21.9969C35.079 21.9713 34.6923 22.0614 34.3557 22.2558C34.481 22.3227 34.5479 22.3728 34.6231 22.4062L35.0742 22.5399C35.1923 22.573 35.3001 22.6356 35.3875 22.7216C35.475 22.8077 35.5392 22.9145 35.5742 23.0321C35.6093 23.1497 35.614 23.2742 35.5879 23.3941C35.5618 23.514 35.5058 23.6253 35.425 23.7177C35.217 23.9295 34.9905 24.1224 34.7484 24.2942L34.6815 24.244C34.6815 24.0937 34.6815 23.9433 34.6815 23.7846C34.6825 23.5541 34.6257 23.327 34.5162 23.1242C34.4068 22.9213 34.2482 22.7491 34.055 22.6234C34.0154 22.6118 33.9737 22.6096 33.9331 22.6169C33.8926 22.6241 33.8542 22.6406 33.8211 22.6652C33.6798 22.9088 33.5515 23.1598 33.4368 23.417C33.4201 23.4941 33.4201 23.5738 33.4368 23.6509C33.4698 23.8553 33.4865 24.062 33.4869 24.2691C33.4549 24.523 33.5046 24.7805 33.6289 25.0042C33.6949 25.1805 33.7453 25.3622 33.7793 25.5472C33.8357 25.7116 33.9114 25.8686 34.0049 26.0151C34.1385 26.249 34.314 26.4662 34.4309 26.7084C34.4309 26.7753 34.4309 26.9423 34.314 27.0008C34.269 27.025 34.2188 27.0376 34.1678 27.0376C34.1168 27.0376 34.0665 27.025 34.0216 27.0008C33.8168 26.8099 33.6242 26.6062 33.4452 26.391C33.4235 26.3485 33.4067 26.3036 33.395 26.2573L33.1361 25.5472C33.0687 25.4091 33.0317 25.2581 33.0275 25.1045C33.0398 24.7734 32.9829 24.4433 32.8604 24.1354C32.828 23.9981 32.828 23.8551 32.8604 23.7177C32.9044 23.5197 32.9602 23.3244 33.0275 23.133C33.0692 22.9743 33.1361 22.8239 33.1862 22.6652C33.2363 22.5064 33.2363 22.473 33.1862 22.4229C33.1522 22.3963 33.1134 22.3767 33.0718 22.3652C33.0302 22.3537 32.9867 22.3506 32.9439 22.3561C32.6096 22.3593 32.28 22.4358 31.9783 22.5801C31.6767 22.7245 31.4103 22.9331 31.198 23.1915C31.198 23.1915 31.1228 23.2416 31.081 23.275C31.0562 23.1287 31.0611 22.979 31.0955 22.8347C31.1298 22.6903 31.193 22.5545 31.2811 22.4351C31.3693 22.3158 31.4806 22.2155 31.6084 22.1402C31.7362 22.0649 31.8779 22.0161 32.025 21.9969C32.3602 21.9983 32.695 22.0206 33.0275 22.0637C33.1294 22.0592 33.2304 22.0424 33.3282 22.0136C33.2904 21.9239 33.2457 21.8373 33.1945 21.7546C33.0325 21.5498 32.818 21.3926 32.5738 21.3C32.3297 21.2073 32.0649 21.1825 31.8078 21.2283C31.6992 21.2283 31.6324 21.2283 31.6407 21.0863C31.6407 20.4681 32.1169 20.2008 32.6265 20.56C32.895 20.7842 33.1362 21.0394 33.3449 21.3202C33.4535 21.4455 33.5538 21.5792 33.654 21.7128H33.7375C33.7677 21.6202 33.7901 21.5252 33.8044 21.4288C33.8108 21.1745 33.8303 20.9208 33.8629 20.6686C33.8742 20.5988 33.9001 20.5322 33.939 20.4732C33.9779 20.4142 34.0288 20.364 34.0884 20.3261C34.1537 20.3206 34.2195 20.329 34.2813 20.3506C34.3432 20.3722 34.3999 20.4065 34.4476 20.4514C34.6214 20.621 34.7833 20.8025 34.9322 20.9944C34.7327 21.0627 34.5526 21.1781 34.4071 21.3307C34.2617 21.4834 34.1552 21.669 34.0968 21.8715L34.1469 21.9551C34.2682 21.923 34.3858 21.8782 34.4978 21.8214C34.851 21.5631 35.2658 21.4018 35.7007 21.3536C35.9125 21.3322 36.1265 21.3579 36.3272 21.4288C36.4379 21.4642 36.5379 21.5269 36.6181 21.6111C36.6982 21.6952 36.7559 21.7982 36.7858 21.9105C36.8157 22.0228 36.817 22.1408 36.7894 22.2537C36.7618 22.3666 36.7063 22.4707 36.628 22.5566" fill="#26245D"/>
<path d="M50.8709 32.5307C50.7772 32.8573 50.6571 33.1758 50.5117 33.483C50.1331 34.1508 49.6212 34.7337 49.008 35.1956C48.841 35.3292 48.6655 35.4044 48.4817 35.1956C48.298 34.9867 48.2645 34.7695 48.5736 34.5941C48.9157 34.4516 49.224 34.239 49.4787 33.9699C49.7334 33.7008 49.9288 33.3813 50.0523 33.0319C50.0758 32.9614 50.0758 32.8852 50.0523 32.8147C50.0523 32.7312 49.9604 32.6142 49.8935 32.5892C49.8267 32.5641 49.7098 32.656 49.6596 32.7228C49.4424 32.9818 49.2586 33.2658 49.0414 33.5582C48.9 33.7384 48.7405 33.9035 48.5653 34.0511C48.4316 34.1714 48.2626 34.2453 48.0835 34.2619C47.9043 34.2784 47.7247 34.2367 47.5712 34.143C47.392 34.0443 47.224 33.9267 47.0699 33.7921C46.8778 33.625 46.8862 33.5248 47.0699 33.3577L48.4149 32.1631C48.4968 32.1055 48.5535 32.0189 48.5736 31.9208C48.5736 31.8122 48.5736 31.6535 48.4901 31.6034C48.4377 31.5818 48.3803 31.5751 48.3243 31.584C48.2684 31.5928 48.2159 31.6169 48.1726 31.6535C47.8385 31.9292 47.5378 32.255 47.1952 32.4889C46.9362 32.6934 46.6561 32.8698 46.3599 33.0152C46.1009 33.1572 45.9672 33.0653 45.8753 32.7646C45.7834 32.4638 45.8753 32.3469 46.1176 32.2968C46.7865 32.1513 47.38 31.7685 47.7884 31.2191C48.0154 30.8949 48.3542 30.6661 48.7398 30.5767C49.1253 30.4872 49.5303 30.5435 49.8768 30.7346C50.5535 31.0437 50.754 31.6201 50.7958 32.4889M49.8351 32.0378H49.9854C50.3864 31.9543 50.5284 31.6118 50.2444 31.3194C50.0605 31.126 49.8347 30.9774 49.5844 30.885C49.518 30.8628 49.4471 30.8574 49.378 30.8692C49.3089 30.881 49.2438 30.9096 49.1885 30.9526C49.1331 30.9955 49.0892 31.0515 49.0607 31.1155C49.0321 31.1794 49.0198 31.2495 49.0247 31.3194C49.0513 31.5216 49.1508 31.7072 49.3047 31.841C49.4586 31.9749 49.6562 32.0479 49.8601 32.0462" fill="#26245D"/>
<path d="M30.0702 32.2053V32.5394C30.0234 32.8475 30.0402 33.162 30.1195 33.4633C30.1989 33.7647 30.3393 34.0466 30.5318 34.2916C30.7244 34.5366 30.9652 34.7396 31.2392 34.8879C31.5133 35.0363 31.8148 35.1269 32.1253 35.1542C32.3471 35.2058 32.5787 35.1961 32.7953 35.126C33.012 35.0559 33.2054 34.928 33.3549 34.7562C33.5043 34.5845 33.6042 34.3752 33.6436 34.1509C33.6831 33.9267 33.6607 33.6959 33.5789 33.4834C33.5202 33.2045 33.3911 32.9453 33.2039 32.7303C33.0168 32.5154 32.7777 32.3519 32.5096 32.2554C32.2831 32.1627 32.0303 32.1575 31.8002 32.2409C31.5701 32.3243 31.3793 32.4902 31.2648 32.7065C31.211 32.9454 31.2436 33.1956 31.3568 33.4128C31.47 33.6299 31.6564 33.8 31.883 33.8928C32.0309 33.9673 32.1964 33.9997 32.3614 33.9864C32.5264 33.9732 32.6846 33.9147 32.8187 33.8176C32.8623 33.7809 32.897 33.7347 32.9201 33.6826C32.9433 33.6305 32.9543 33.5738 32.9523 33.5168C32.9523 33.4584 32.7852 33.4082 32.6933 33.3665C32.4761 33.3117 32.2637 33.2391 32.0585 33.1493C31.8663 33.0323 31.9081 32.8485 32.1253 32.765C32.1883 32.7483 32.2545 32.7483 32.3174 32.765C32.5495 32.8132 32.7579 32.9401 32.9071 33.1244C33.0563 33.3086 33.1372 33.5387 33.1361 33.7758C33.1361 33.9974 33.0481 34.2098 32.8914 34.3665C32.7348 34.5232 32.5223 34.6112 32.3007 34.6112C32.0682 34.6252 31.8354 34.5879 31.6189 34.5018C31.4024 34.4158 31.2075 34.2831 31.048 34.1133C30.8886 33.9435 30.7685 33.7406 30.6962 33.5192C30.6239 33.2977 30.6013 33.063 30.6299 32.8318C30.6471 32.6075 30.7386 32.3954 30.8899 32.2289C31.0412 32.0625 31.2437 31.9513 31.4653 31.9129C31.771 31.8204 32.0962 31.8136 32.4056 31.8931C32.7149 31.9727 32.9965 32.1355 33.2196 32.364C33.587 32.707 33.8465 33.1496 33.9667 33.6376C34.0868 34.1256 34.0624 34.6381 33.8963 35.1124C33.8075 35.3734 33.6419 35.6016 33.4213 35.767C33.2008 35.9325 32.9354 36.0275 32.6599 36.0397C32.0699 36.1372 31.4642 36.0499 30.9258 35.7896C30.3874 35.5294 29.9427 35.109 29.6525 34.5861C29.4433 34.2617 29.3463 33.8776 29.3765 33.4928C29.4067 33.108 29.5624 32.7437 29.8196 32.4559C29.9082 32.3758 30.0032 32.3032 30.1036 32.2387" fill="#26245D"/>
<path d="M37.0374 29.9832C36.6278 30.0068 36.2198 29.9152 35.8595 29.7188C35.4993 29.5225 35.2012 29.2291 34.9991 28.8721C34.8666 28.6071 34.8104 28.3104 34.837 28.0154C34.8635 27.7203 34.9717 27.4384 35.1495 27.2013C35.1651 27.1728 35.187 27.1481 35.2135 27.1291C35.24 27.1102 35.2704 27.0974 35.3025 27.0918C35.3346 27.0862 35.3675 27.0878 35.3989 27.0967C35.4302 27.1055 35.4592 27.1213 35.4836 27.1428C35.62 27.2378 35.7655 27.319 35.918 27.3851C35.9885 27.423 36.0707 27.4328 36.1482 27.4127C36.2256 27.3926 36.2926 27.3439 36.3357 27.2765C36.436 27.1094 36.3357 26.9841 36.202 26.9006C35.9431 26.7084 35.6674 26.5414 35.4168 26.3492C35.2462 26.2205 35.0944 26.0687 34.9657 25.8981C34.9237 25.8446 34.8935 25.7828 34.877 25.7168C34.8606 25.6508 34.8581 25.5821 34.87 25.5151C34.8818 25.4482 34.9076 25.3844 34.9456 25.3281C34.9837 25.2717 35.0332 25.224 35.091 25.188C35.2664 25.046 35.4586 24.9291 35.634 24.7954C35.7611 24.7043 35.8812 24.6038 35.9932 24.4947C36.2772 24.2106 36.5613 23.9266 36.3775 23.4504C36.5197 23.5066 36.6485 23.5922 36.7554 23.7016C36.8623 23.8111 36.9449 23.9418 36.9977 24.0853C37.0505 24.2289 37.0725 24.382 37.062 24.5346C37.0516 24.6872 37.0091 24.8358 36.9372 24.9708C36.8202 25.1546 36.6782 25.3301 36.5446 25.5055C36.4861 25.56 36.4404 25.6268 36.4108 25.7011C36.3811 25.7753 36.3682 25.8552 36.373 25.935C36.3778 26.0148 36.4002 26.0925 36.4385 26.1627C36.4768 26.2329 36.5301 26.2937 36.5947 26.3409C36.7033 26.4411 36.8202 26.533 36.9288 26.6416C37.0558 26.7354 37.1421 26.8741 37.1701 27.0294C37.198 27.1847 37.1655 27.3449 37.0792 27.477C36.9558 27.7183 36.8192 27.9526 36.6699 28.1787C36.5582 28.3042 36.4761 28.453 36.4293 28.6143C36.3826 28.7756 36.3724 28.9453 36.3997 29.1111C36.4269 29.2768 36.4908 29.4343 36.5866 29.5722C36.6825 29.7101 36.808 29.8248 36.9539 29.908C36.9539 29.908 36.9539 29.908 37.0374 30.0082" fill="#26245D"/>
<path d="M31.6571 18.212C31.7156 18.3958 31.7574 18.5211 31.7908 18.6547C31.8043 18.7496 31.8456 18.8383 31.9096 18.9097C31.9735 18.9811 32.0572 19.0319 32.15 19.0557C32.2456 19.0698 32.3431 19.0511 32.4265 19.0025C32.51 18.9539 32.5745 18.8784 32.6095 18.7884C32.7288 18.557 32.8133 18.3093 32.8601 18.0533C32.9269 17.5771 32.7515 17.4184 32.292 17.4601C32.3772 17.2412 32.5231 17.051 32.7124 16.9119C32.9018 16.7729 33.1269 16.6906 33.3613 16.6749C34.5726 16.5746 34.7397 17.4184 34.7731 18.3456H34.8567C34.9736 18.2454 35.0989 18.1535 35.2075 18.0449C35.4158 17.7721 35.7102 17.5778 36.0429 17.4935C36.2428 17.4523 36.4508 17.4855 36.6278 17.5871C36.8048 17.6887 36.9385 17.8515 37.0036 18.0449C37.0815 18.2359 37.1174 18.4415 37.1087 18.6477C37.1001 18.8538 37.0471 19.0557 36.9535 19.2395C36.9443 19.0951 36.919 18.9523 36.8783 18.8135C36.8297 18.7188 36.7678 18.6316 36.6945 18.5545C36.6026 18.6213 36.4606 18.6798 36.4355 18.7717C36.3589 19.0035 36.3194 19.246 36.3186 19.4901C36.3186 19.8159 36.4188 19.8995 36.7279 19.9579C36.6958 20.0791 36.6368 20.1916 36.5553 20.2868C36.4739 20.3821 36.372 20.4579 36.2572 20.5084C36.1425 20.559 36.0178 20.583 35.8925 20.5789C35.7672 20.5747 35.6444 20.5423 35.5333 20.4842C35.2396 20.3265 35.016 20.0641 34.9068 19.7491C34.8316 19.5486 34.7648 19.3481 34.6979 19.1476C34.6311 18.9471 34.5559 18.9388 34.4139 19.0724C34.2623 19.2201 34.1003 19.3569 33.9294 19.4818C33.6928 19.6573 33.4203 19.7782 33.1314 19.836C32.8426 19.8938 32.5445 19.8869 32.2586 19.8159C32.119 19.768 31.9903 19.693 31.8798 19.5952C31.7693 19.4974 31.6792 19.3786 31.6148 19.2459C31.5504 19.1131 31.5128 18.9689 31.5043 18.8216C31.4958 18.6743 31.5165 18.5267 31.5652 18.3874C31.6068 18.314 31.6543 18.2442 31.7073 18.1786M32.9353 19.156C32.9854 19.2395 33.0355 19.3899 33.1191 19.4066C33.2026 19.4233 33.3279 19.323 33.3947 19.2312C33.4881 19.1168 33.5539 18.9824 33.5869 18.8385C33.7289 18.3623 33.8542 17.8778 33.9628 17.3933C33.9628 17.2763 33.896 17.1427 33.8542 17.0174C33.7412 17.0721 33.6347 17.1393 33.5368 17.2179C33.4625 17.3168 33.4112 17.4309 33.3864 17.552C33.2778 17.8945 33.1775 18.237 33.0856 18.5879C33.0355 18.7633 32.9938 18.9388 32.9353 19.156ZM36.3687 18.4542C36.3102 18.3289 36.2518 18.1953 36.1849 18.07C36.0763 18.1619 35.9009 18.237 35.8675 18.354C35.7213 18.7743 35.6041 19.2042 35.5166 19.6405C35.5166 19.7407 35.6169 19.866 35.667 19.9746C35.7672 19.9078 35.9093 19.866 35.9677 19.7742C36.1856 19.3643 36.3218 18.916 36.3687 18.4542ZM34.6478 18.3373C34.6373 18.2184 34.6149 18.1009 34.581 17.9864C34.5607 17.9364 34.5302 17.8912 34.4913 17.8538C34.4525 17.8164 34.4062 17.7876 34.3554 17.7692C34.2802 17.7692 34.1549 17.8277 34.0965 17.9029C33.893 18.1826 33.8007 18.528 33.8375 18.8719C33.8543 18.9244 33.8849 18.9715 33.926 19.0082C33.9671 19.0449 34.0173 19.07 34.0714 19.0808C34.3137 19.0808 34.6478 18.6547 34.6478 18.3373ZM34.8817 18.8719C34.8817 18.9889 34.8817 19.0474 34.8817 19.0808C34.9556 19.1785 35.0366 19.2706 35.124 19.3565C35.2048 19.2898 35.2776 19.2141 35.3412 19.1309C35.4113 19.0199 35.4542 18.894 35.4665 18.7633C35.4468 18.6328 35.4073 18.5061 35.3495 18.3874C35.2409 18.4292 35.1073 18.4459 35.0404 18.5294C34.9597 18.6334 34.8949 18.7488 34.8483 18.8719" fill="#26245D"/>
<path d="M37.4216 28.2205C37.4899 28.4411 37.6119 28.6413 37.7766 28.8032C37.9414 28.965 38.1437 29.0834 38.3656 29.1478C38.6735 29.248 38.9315 29.4621 39.0868 29.7463C39.242 30.0305 39.2829 30.3633 39.2009 30.6766C39.1279 31.1445 38.8948 31.5727 38.5414 31.888C38.1879 32.2033 37.7361 32.3863 37.2628 32.4058C36.7026 32.4801 36.1347 32.3422 35.671 32.0191C35.2072 31.6961 34.8811 31.2112 34.7567 30.6598C34.7139 30.4447 34.7139 30.2233 34.7567 30.0082C34.7567 29.7409 34.9321 29.7075 35.1159 29.8996C35.4267 30.2705 35.8707 30.5044 36.3523 30.5512C36.7764 30.5649 37.201 30.5454 37.6221 30.4928C37.7202 30.4739 37.8121 30.4308 37.8894 30.3675C38.2486 30.1252 38.257 29.9163 37.8894 29.6407L37.5803 29.4068C37.1208 29.106 37.054 28.705 37.4383 28.2122M37.5302 31.3449C37.5302 31.8461 37.7056 31.9798 38.0565 31.7709C38.2467 31.6721 38.4108 31.5299 38.5357 31.3557C38.6605 31.1815 38.7425 30.9803 38.7749 30.7684C38.8167 30.4928 38.6579 30.3758 38.4073 30.4761C38.1567 30.5763 38.14 30.6264 37.9896 30.6766C37.8454 30.7139 37.7194 30.802 37.635 30.9248C37.5506 31.0476 37.5133 31.1968 37.5302 31.3449Z" fill="#26245D"/>
<path d="M45.8083 25.188C45.6914 25.2548 45.5828 25.3384 45.4575 25.3968C45.1902 25.5221 44.9145 25.6307 44.6221 25.7644C44.5595 25.7902 44.503 25.8289 44.4563 25.8779C44.4095 25.9269 44.3736 25.9852 44.3508 26.049C44.3279 26.1127 44.3187 26.1806 44.3237 26.2481C44.3287 26.3156 44.3479 26.3814 44.3798 26.4411C44.5135 26.6833 45.0231 26.8504 45.2152 26.675C45.4074 26.4995 45.3572 26.3826 45.4408 26.2072C45.4709 26.1994 45.5025 26.1994 45.5327 26.2072C45.8752 26.4661 46.2177 26.7251 46.5351 27.0008C46.6855 27.1261 46.6437 27.243 46.4516 27.2932C46.1007 27.3767 45.7499 27.4686 45.3907 27.5438C45.3129 27.5525 45.2345 27.5525 45.1567 27.5438C45.1534 27.5077 45.1534 27.4713 45.1567 27.4352C45.3238 27.0509 45.2737 26.9674 44.8644 26.9256C44.84 26.9173 44.8136 26.9173 44.7892 26.9256C44.6137 26.9757 44.3798 26.9256 44.2796 27.0843C44.1793 27.243 44.3464 27.4101 44.43 27.5521C44.5135 27.6941 44.5636 27.7276 44.6137 27.8195C44.7725 28.0617 44.6889 28.2288 44.4049 28.2789C44.3055 28.3054 44.2007 28.3036 44.1024 28.2737C44.004 28.2438 43.9159 28.1869 43.8481 28.1096C43.7803 28.0323 43.7355 27.9375 43.7188 27.836C43.702 27.7346 43.714 27.6304 43.7533 27.5354C43.8049 27.4327 43.8495 27.3267 43.887 27.218C43.9036 27.1156 43.9036 27.0112 43.887 26.9089C43.7784 26.9089 43.6447 26.9089 43.5528 26.9089C43.4413 26.9912 43.3427 27.0897 43.2604 27.2013C43.0082 27.5319 42.6472 27.7627 42.2412 27.8529H42.0825C42.2119 27.6616 42.3003 27.4455 42.342 27.2183C42.3837 26.9911 42.3778 26.7578 42.3248 26.533C42.326 26.4683 42.3417 26.4048 42.3706 26.347C42.3995 26.2892 42.4409 26.2386 42.4919 26.1988C42.6222 26.1757 42.7564 26.2026 42.8678 26.274C42.9931 26.3408 43.0683 26.4745 43.1852 26.5413C43.3022 26.6081 43.4609 26.6583 43.5361 26.6081C43.5964 26.5726 43.6469 26.5227 43.6834 26.463C43.7198 26.4033 43.7409 26.3355 43.7449 26.2656C43.7086 26.0911 43.6214 25.9312 43.4943 25.8062C43.3098 25.6569 43.1079 25.5307 42.8928 25.4302C42.7601 25.3753 42.6404 25.2929 42.5417 25.1885C42.443 25.084 42.3675 24.9599 42.3201 24.8242C42.2728 24.6885 42.2547 24.5443 42.267 24.4011C42.2793 24.258 42.3218 24.119 42.3916 23.9934C42.3916 23.8931 42.4668 23.7929 42.5086 23.6926C42.5086 23.6425 42.5503 23.5924 42.5086 23.6926C42.7926 23.8514 43.0516 24.0268 43.344 24.1605C43.496 24.2187 43.6245 24.3257 43.7092 24.4648C43.7938 24.6039 43.8299 24.7672 43.8118 24.929C43.8118 25.1546 43.8118 25.3885 43.8118 25.6224C43.8118 25.8563 43.8786 25.9231 44.0624 25.9148C44.2462 25.9064 44.3381 25.7895 44.3381 25.6057C44.3381 25.4219 44.3381 25.2799 44.3381 25.1128C44.3381 24.9457 44.4884 24.6868 44.7391 24.7536C44.9897 24.8204 45.4658 25.0042 45.8251 25.1295L45.8083 25.188Z" fill="#26245D"/>
<path d="M50.0945 26.9926C50.011 27.2098 49.8439 27.4187 49.8773 27.5857C49.9108 27.7528 50.153 27.8531 50.3034 27.9867C49.7353 28.0368 49.7353 28.0368 49.6434 28.5715L49.4596 28.3125C49.3524 28.1368 49.2324 27.9693 49.1004 27.8113C48.9657 27.6713 48.8036 27.5604 48.6243 27.4855C48.5543 27.4599 48.4793 27.4512 48.4053 27.4599C48.3313 27.4686 48.2604 27.4945 48.1982 27.5356C48.123 27.6024 48.123 27.8029 48.1481 27.9366C48.2013 28.132 48.295 28.314 48.4231 28.4709C48.5512 28.6278 48.7108 28.756 48.8916 28.8472L49.2257 29.0644C49.0336 29.1646 48.7997 29.2064 48.7329 29.3401C48.666 29.4737 48.7329 29.6993 48.7329 29.9499C48.6382 29.8848 48.5513 29.8092 48.4739 29.7243C48.1982 29.4152 48.1982 29.4069 47.8557 29.6659C47.8052 29.7033 47.7429 29.7211 47.6803 29.716C47.7889 29.4319 47.8808 29.1396 47.9977 28.8806C48.0636 28.7334 48.0977 28.574 48.0977 28.4128C48.0977 28.2515 48.0636 28.0921 47.9977 27.945C47.9823 27.8835 47.9497 27.8277 47.9038 27.784C47.8578 27.7403 47.8004 27.7107 47.7382 27.6984C47.6761 27.6861 47.6117 27.6918 47.5526 27.7148C47.4935 27.7377 47.4422 27.777 47.4046 27.828C47.1213 28.0848 46.9478 28.4408 46.9201 28.8221C46.9201 29.031 46.9201 29.2398 46.8783 29.4904C46.753 29.2899 46.6862 29.0477 46.5525 29.0143C46.4188 28.9808 46.21 29.1061 46.0011 29.173C46.0513 29.0811 46.093 28.9892 46.1432 28.9056C46.1933 28.8221 46.2434 28.5798 46.0095 28.488C45.8848 28.4528 45.7684 28.3931 45.667 28.3125C45.7672 28.3125 45.8591 28.2708 45.9594 28.2624C46.4212 28.2103 46.85 27.9974 47.1707 27.6609C47.249 27.5983 47.3123 27.5189 47.3558 27.4285C47.3993 27.3381 47.4218 27.2391 47.4218 27.1388C47.4218 27.0385 47.3993 26.9395 47.3558 26.8491C47.3123 26.7587 47.249 26.6793 47.1707 26.6167C46.9273 26.4081 46.6706 26.2155 46.4021 26.0403L46.1181 25.8064C46.3102 25.7312 46.5358 25.7061 46.6193 25.5808C46.7029 25.4555 46.6193 25.2383 46.6778 25.0044C46.7697 25.1297 46.8449 25.2132 46.9117 25.2968C47.0872 25.539 47.1957 25.5474 47.3962 25.2968C47.4565 25.23 47.5096 25.1572 47.555 25.0796H47.6385C47.6427 25.1603 47.6427 25.2411 47.6385 25.3218C47.5751 25.5691 47.5276 25.8203 47.4965 26.0737C47.4751 26.2691 47.5008 26.4668 47.5717 26.6501C47.697 26.9341 47.956 26.9425 48.1648 26.7169C48.2465 26.618 48.306 26.5026 48.3391 26.3787C48.3723 26.2547 48.3784 26.125 48.3569 25.9985C48.3569 25.7646 48.3569 25.5307 48.2985 25.255C48.4739 25.397 48.6076 25.5808 48.7579 25.5975C48.9083 25.6142 49.0921 25.4639 49.3093 25.3636C49.1171 25.7061 48.9166 26.057 49.5682 26.1405L49.5098 26.199C49.405 26.2161 49.3016 26.2413 49.2007 26.2742C48.9399 26.3645 48.6881 26.4792 48.4488 26.6167C48.3984 26.6658 48.3606 26.7264 48.3388 26.7934C48.3169 26.8603 48.3117 26.9316 48.3235 27.001C48.3235 27.0845 48.5073 27.168 48.6159 27.2015C48.9766 27.2649 49.348 27.2123 49.6768 27.0511L50.0945 26.8924" fill="#26245D"/>
<path d="M32.5346 28.697L32.6349 28.8306C32.66 28.8758 32.6939 28.9154 32.7346 28.9471C32.7754 28.9788 32.8221 29.002 32.872 29.0152C32.9219 29.0285 32.974 29.0315 33.0251 29.0242C33.0762 29.0169 33.1253 28.9994 33.1695 28.9727C33.2201 28.9488 33.2653 28.9148 33.3022 28.8728C33.3392 28.8308 33.3672 28.7817 33.3844 28.7284C33.4016 28.6752 33.4077 28.619 33.4024 28.5633C33.397 28.5076 33.3803 28.4536 33.3533 28.4046C33.1342 27.936 32.8916 27.4787 32.6265 27.0346C32.1446 26.3134 31.828 25.4947 31.6992 24.637C31.704 24.615 31.704 24.5922 31.6992 24.5702L31.5321 24.3613C31.4718 24.4212 31.4236 24.4921 31.3901 24.5702C31.2936 25.0394 31.3195 25.5256 31.4653 25.982C31.6324 26.4665 31.8162 26.9427 31.9415 27.4356C32.0137 27.7078 32.0363 27.9907 32.0083 28.2709C31.9818 28.4106 31.9032 28.5349 31.7884 28.6187C31.6736 28.7024 31.5312 28.7394 31.3901 28.7221C31.2687 28.7202 31.1523 28.6729 31.0641 28.5893C30.9759 28.5058 30.9223 28.3921 30.914 28.2709C30.91 28.2349 30.91 28.1984 30.914 28.1623C31.4653 28.2626 31.6491 28.1206 31.5739 27.5525C31.5739 27.1849 31.3985 26.8341 31.3233 26.4749C31.2481 26.1156 31.1729 25.7063 31.0977 25.322C31.0977 25.2301 31.0977 25.1382 31.0393 25.038C30.9495 25.0597 30.8705 25.113 30.8168 25.1882C30.7631 25.2633 30.7383 25.3554 30.7469 25.4473C30.7469 25.982 30.7469 26.525 30.6884 27.068C30.6887 27.2336 30.6719 27.3987 30.6383 27.5609C30.608 27.6983 30.538 27.8238 30.437 27.9218C30.336 28.0199 30.2085 28.0861 30.0702 28.1122C29.7194 28.2041 29.4186 27.8783 29.4854 27.469L29.6859 27.5442C30.0368 27.6778 30.2958 27.5442 30.3542 27.1766C30.3931 26.8745 30.4154 26.5705 30.4211 26.266C30.4196 25.4558 30.7171 24.6735 31.2565 24.0689C31.4653 23.8267 31.7076 23.6262 31.9331 23.4006L31.9832 23.4424C31.9915 23.4922 31.9915 23.543 31.9832 23.5928C31.8579 23.9945 31.8289 24.4202 31.8986 24.8352C31.9682 25.2503 32.1346 25.6431 32.3842 25.982C32.7769 26.6336 33.2196 27.2351 33.629 27.8867C33.8037 28.1638 33.9203 28.4736 33.9715 28.7972C33.9831 28.9292 33.9631 29.0621 33.9133 29.1849C33.8634 29.3077 33.785 29.4168 33.6847 29.5033C33.5843 29.5899 33.4647 29.6512 33.336 29.6824C33.2072 29.7136 33.0728 29.7137 32.9439 29.6827C32.5179 29.5909 32.2172 28.981 32.568 28.697" fill="#26245D"/>
<path d="M44.4471 37.9366C44.2918 37.9181 44.1381 37.8874 43.9876 37.8447C43.8455 37.8095 43.7191 37.728 43.6283 37.6131C43.5376 37.4981 43.4877 37.3563 43.4864 37.2098C43.4798 36.9293 43.5321 36.6505 43.6401 36.3915C43.748 36.1325 43.9091 35.899 44.1129 35.7061C44.1606 35.6716 44.2148 35.6471 44.2723 35.6342C44.3297 35.6213 44.3892 35.6202 44.4471 35.6309C44.8585 35.756 45.2928 35.7872 45.7178 35.7221C46.1429 35.6571 46.548 35.4975 46.9031 35.255C47.3153 35.01 47.5575 35.1269 47.6299 35.6059C47.6622 35.8227 47.6411 36.0441 47.5683 36.2508C47.4955 36.4576 47.3732 36.6434 47.2122 36.7921C46.6587 37.354 45.9374 37.7205 45.1572 37.8364L44.4471 37.9366ZM45.3744 37.3017C45.5506 37.2614 45.7237 37.2084 45.8923 37.143C46.0863 37.0771 46.2625 36.9675 46.4073 36.8226C46.5522 36.6778 46.6618 36.5016 46.7277 36.3076C46.745 36.1928 46.7245 36.0755 46.6692 35.9735C46.6692 35.9317 46.5188 35.915 46.452 35.9233L45.3911 36.1907C45.2491 36.1907 45.1405 36.2658 45.1238 36.4329C45.107 36.6 45.0569 36.8339 45.0319 37.0344C45.0068 37.2349 45.082 37.3351 45.3994 37.3351" fill="#26245D"/>
<path d="M51.6317 31.2696C51.5231 30.6932 51.072 30.4342 50.5958 30.2254C50.4802 30.1754 50.3685 30.1167 50.2617 30.0499C50.189 30.0209 50.1231 29.9773 50.0678 29.9219C50.0126 29.8666 49.9692 29.8005 49.9402 29.7279C49.9113 29.6552 49.8975 29.5774 49.8996 29.4992C49.9017 29.421 49.9198 29.344 49.9526 29.273C50.0612 28.9472 50.2366 28.8553 50.6543 28.9054C50.8214 28.9054 50.9884 28.9054 51.1555 28.9054L51.1054 28.4126C51.0924 28.2771 51.1205 28.1409 51.1861 28.0217C51.2516 27.9025 51.3516 27.8058 51.473 27.7443C51.5955 27.684 51.7353 27.6686 51.8681 27.7007C52.0008 27.7327 52.1182 27.8102 52.1998 27.9197C52.3715 28.1163 52.4967 28.3491 52.5661 28.6007C52.6356 28.8524 52.6474 29.1164 52.6007 29.3733C52.4938 30.0302 52.2043 30.6439 51.7654 31.1443L51.6735 31.2278H51.6066" fill="#26245D"/>
<path d="M48.1229 18.6639C47.5992 18.7026 47.0785 18.5566 46.6512 18.2514C46.224 17.9462 45.917 17.501 45.7838 16.9931C45.7337 16.7759 45.7838 16.7007 46.0177 16.659C46.4604 16.5754 46.9032 16.4501 47.3543 16.3749C47.4178 16.362 47.4835 16.3643 47.546 16.3818C47.6084 16.3992 47.6659 16.4312 47.7135 16.4752C47.7916 16.5889 47.9079 16.6708 48.0413 16.706C48.1746 16.7413 48.3162 16.7275 48.4403 16.6673C49.0084 16.4752 49.0501 16.4835 49.3258 17.0265C49.4314 17.2569 49.5126 17.4977 49.5681 17.745C49.5965 17.8498 49.5889 17.9611 49.5465 18.0611C49.5041 18.1611 49.4293 18.2439 49.3342 18.2963C48.9726 18.5294 48.553 18.6568 48.1229 18.6639ZM48.8664 17.5779C48.741 17.5779 48.6408 17.4943 48.5405 17.4776C48.0477 17.3857 47.5631 17.2939 47.0703 17.2187C46.9543 17.2196 46.8391 17.2364 46.7278 17.2688C46.7779 17.3857 46.7862 17.5278 46.8614 17.6029C47.0067 17.7561 47.1836 17.8758 47.3798 17.9537C47.576 18.0316 47.7868 18.0659 47.9976 18.0541C48.1689 18.0704 48.3411 18.0334 48.4906 17.9482C48.6402 17.863 48.7597 17.7336 48.8329 17.5779" fill="#26245D"/>
<path d="M35.2578 34.7446C35.4332 34.7446 35.5669 34.7446 35.7006 34.7446C35.966 34.8078 36.2456 34.7679 36.4828 34.633C36.7201 34.4981 36.8973 34.2783 36.9787 34.0178C37.0539 33.8758 37.1207 33.7254 37.2043 33.5834C37.2888 33.4309 37.4303 33.3181 37.5978 33.2695C37.7653 33.221 37.9451 33.2408 38.0981 33.3244L38.2485 33.3996C38.4657 33.4915 38.591 33.3996 38.5743 33.1824C38.5576 32.9652 38.4991 32.9402 38.5075 32.8232C38.5214 32.7175 38.5554 32.6154 38.6077 32.5225L38.875 32.6311C38.975 32.6981 39.085 32.7489 39.2008 32.7814C39.4431 32.7814 39.535 32.9234 39.4598 33.149C39.4439 33.2458 39.4439 33.3446 39.4598 33.4414C39.4598 33.5333 39.4598 33.6753 39.4598 33.7171C39.4598 33.7588 39.276 33.7588 39.1758 33.7171C39.0755 33.6753 39.0588 33.6502 39.0003 33.6335C38.7414 33.5667 38.591 33.7004 38.6495 33.9593C38.6978 34.1482 38.6895 34.3471 38.6256 34.5313C38.5617 34.7154 38.4451 34.8768 38.2903 34.9952C37.9984 35.2388 37.6549 35.4127 37.2858 35.5039C36.9167 35.5951 36.5318 35.6011 36.16 35.5215C35.9567 35.4777 35.7676 35.3836 35.61 35.2479C35.4524 35.1122 35.3313 34.9392 35.2578 34.7446Z" fill="#26245D"/>
<path d="M33.403 11.3456L33.2443 11.4542C32.9435 11.6547 32.9352 11.8552 33.2443 12.0724C33.5534 12.2896 33.662 12.3731 33.8708 12.5151V12.607L33.403 12.5235C33.2276 12.5235 33.0104 12.4399 32.9185 12.6321C32.8681 12.7868 32.8681 12.9535 32.9185 13.1082C32.9727 13.3127 33.0397 13.5136 33.119 13.7097L33.0605 13.7515C32.9792 13.6916 32.9011 13.6275 32.8266 13.5594C32.7598 13.4925 32.7096 13.4173 32.6511 13.3505C32.5927 13.2837 32.4089 12.9913 32.1583 13.0414C31.9077 13.0915 31.8826 13.3421 31.8241 13.5426C31.7656 13.7431 31.7072 13.8935 31.657 14.0606H31.5735C31.5735 13.9603 31.5735 13.8517 31.5317 13.7431C31.519 13.6053 31.4966 13.4685 31.4649 13.3338C31.3563 12.9996 31.1224 12.9328 30.83 13.1166L30.2536 13.5092L30.1868 13.4507L30.404 13.1249C30.4864 13.0324 30.5592 12.9316 30.6212 12.8242C30.6713 12.724 30.7298 12.5652 30.6796 12.4984C30.6295 12.4316 30.4791 12.3731 30.3705 12.3731C30.0865 12.3731 29.8025 12.4316 29.5352 12.465V12.4065C29.602 12.3647 29.6605 12.3146 29.7273 12.2812C29.9184 12.205 30.1052 12.1186 30.287 12.0222C30.5877 11.8385 30.5794 11.6296 30.287 11.4375L30.1868 11.3706C30.184 11.3457 30.184 11.3204 30.1868 11.2955C30.3904 11.2233 30.6099 11.2077 30.8217 11.2503C31.0336 11.293 31.2299 11.3923 31.3897 11.5377C31.7656 11.9136 32.0246 11.922 32.3755 11.5377C32.7263 11.1534 33.1106 11.262 33.5283 11.3539" fill="#26245D"/>
<path d="M30.3709 31.5537C30.2251 31.4512 30.0882 31.3367 29.9616 31.2112C29.9267 31.153 29.8721 31.1093 29.8078 31.0878C29.7434 31.0663 29.6735 31.0686 29.6107 31.0943C29.4666 31.1458 29.308 31.1388 29.169 31.0748C29.03 31.0108 28.9217 30.8948 28.8672 30.7517C28.8361 30.6812 28.8196 30.6051 28.8189 30.5281C28.8181 30.451 28.833 30.3746 28.8627 30.3035C28.8924 30.2324 28.9363 30.168 28.9916 30.1144C29.047 30.0608 29.1126 30.019 29.1847 29.9915C29.2785 29.9642 29.3588 29.9028 29.4098 29.8193C29.4608 29.7359 29.4788 29.6365 29.4603 29.5404C29.4504 29.4214 29.4826 29.3026 29.5513 29.2049C29.62 29.1072 29.7209 29.0367 29.8363 29.0058C29.9578 28.9508 30.0945 28.9391 30.2237 28.9725C30.3529 29.0059 30.4667 29.0825 30.5463 29.1896C30.5643 29.2328 30.591 29.2719 30.6247 29.3044C30.6584 29.3369 30.6984 29.3622 30.7423 29.3786C30.7861 29.395 30.8328 29.4023 30.8796 29.4C30.9264 29.3976 30.9722 29.3857 31.0142 29.365C31.1493 29.3225 31.2958 29.3346 31.4222 29.3986C31.5486 29.4625 31.645 29.5734 31.6908 29.7075C31.7505 29.8417 31.7551 29.994 31.7035 30.1315C31.6519 30.2691 31.5484 30.3808 31.4151 30.4427C31.3063 30.4704 31.2122 30.5385 31.1517 30.6331C31.0912 30.7278 31.0689 30.8418 31.0893 30.9522C31.0893 31.3031 30.8387 31.5036 30.3709 31.5537ZM30.7719 30.2422C30.7596 30.1195 30.7025 30.0057 30.6116 29.9225C30.5207 29.8393 30.4023 29.7925 30.279 29.7911C30.16 29.7994 30.0485 29.8521 29.9665 29.9387C29.8845 30.0254 29.8381 30.1396 29.8363 30.2589C29.8427 30.3822 29.8969 30.4982 29.9873 30.5824C30.0777 30.6666 30.1973 30.7123 30.3208 30.71C30.4399 30.7 30.5514 30.647 30.6344 30.561C30.7174 30.4749 30.7662 30.3616 30.7719 30.2422Z" fill="#26245D"/>
<path d="M50.8462 18.914C51.2461 18.8187 51.6373 18.6902 52.0157 18.5298C52.3559 18.3113 52.6798 18.0684 52.9848 17.803C52.9848 17.8698 53.0349 17.9617 53.0516 18.0536C53.1352 18.7634 53.1098 19.4817 52.9764 20.1838C52.9764 20.3509 52.9764 20.5096 52.918 20.6684C52.8595 20.8271 52.7759 21.0025 52.5337 20.8688C51.9252 20.5293 51.4245 20.0257 51.0885 19.4153C50.9993 19.2524 50.9185 19.0851 50.8462 18.914Z" fill="#26245D"/>
<path d="M27.9227 20.8521C27.5217 20.7936 27.1374 20.7435 26.7615 20.6683C26.7259 20.6469 26.6969 20.616 26.6778 20.5792C26.6586 20.5423 26.65 20.5009 26.6529 20.4595C26.691 20.2231 26.7412 19.9889 26.8033 19.7577C26.9129 19.3834 27.1404 19.0544 27.4519 18.8196C27.7635 18.5848 28.1424 18.4568 28.5325 18.4545C28.6328 18.4545 28.7414 18.4545 28.85 18.4545C28.9638 18.4318 29.0821 18.4538 29.1801 18.5161C29.2781 18.5783 29.3484 18.676 29.3762 18.7887C29.3936 18.8613 29.4348 18.926 29.4932 18.9725C29.7689 19.1563 29.6937 19.3735 29.5851 19.6157C29.4536 19.9598 29.2264 20.259 28.9304 20.4781C28.6343 20.6972 28.2818 20.8269 27.9143 20.8521M28.0981 20.5263C28.1841 20.4995 28.2679 20.4659 28.3487 20.4261C28.4907 20.3509 28.5074 20.2256 28.3487 20.142C28.0538 19.9418 27.8358 19.6472 27.7305 19.3066C27.647 19.0811 27.4966 19.0894 27.3546 19.3066C27.2852 19.4042 27.2479 19.521 27.2479 19.6408C27.2479 19.7606 27.2852 19.8774 27.3546 19.9749C27.4221 20.122 27.5256 20.2497 27.6556 20.3461C27.7856 20.4425 27.9378 20.5044 28.0981 20.5263ZM28.9335 19.858C29.2593 19.858 29.4347 19.5907 29.3011 19.3651C29.1798 19.1693 29.0488 18.9797 28.9084 18.797C28.8898 18.7618 28.8638 18.7309 28.8321 18.7067C28.8004 18.6825 28.7639 18.6654 28.725 18.6567C28.686 18.6479 28.6457 18.6477 28.6067 18.6561C28.5677 18.6645 28.531 18.6812 28.4991 18.7052C28.3404 18.797 28.2234 18.9391 28.332 19.1312C28.4281 19.3309 28.5428 19.5211 28.6745 19.6993C28.7504 19.7676 28.8382 19.8214 28.9335 19.858Z" fill="#26245D"/>
<path d="M35.7507 34.0094C35.3991 34.0349 35.0516 33.9214 34.7829 33.6933C34.5142 33.4652 34.3457 33.1407 34.3138 32.7897C34.2813 32.3727 34.1069 31.9794 33.8196 31.6754C33.5323 31.3714 33.1495 31.175 32.7349 31.1189C32.6219 31.098 32.5122 31.0614 32.4091 31.0103C32.3089 30.9519 32.1919 30.8516 32.1836 30.7597C32.1912 30.7027 32.2108 30.648 32.241 30.599C32.2713 30.5501 32.3115 30.5081 32.359 30.4757C32.6288 30.336 32.9406 30.3004 33.2349 30.3759C33.5292 30.4514 33.7854 30.6327 33.9546 30.885C34.0975 31.1519 34.215 31.4316 34.3055 31.7204C34.3472 31.8207 34.364 31.9293 34.3974 32.0295C34.4976 32.372 34.6313 32.4806 34.9821 32.4639C35.2335 32.4448 35.4849 32.5014 35.7037 32.6265C35.9226 32.7516 36.099 32.9394 36.2102 33.1656C36.5109 33.6836 36.3438 34.001 35.7507 34.001M35.1743 32.7396C35.0667 32.8039 34.9707 32.8858 34.8902 32.9819C34.8839 33.0227 34.8873 33.0645 34.9004 33.1038C34.9135 33.143 34.9358 33.1786 34.9654 33.2074C35.1815 33.3516 35.4076 33.48 35.6421 33.5917C35.6874 33.6034 35.7349 33.6035 35.7802 33.5918C35.8255 33.5801 35.8671 33.5571 35.9011 33.5249C35.9318 33.4899 35.9545 33.4485 35.9675 33.4038C35.9805 33.359 35.9835 33.3119 35.9763 33.2659C35.8984 33.1102 35.7794 32.9788 35.6321 32.886C35.4848 32.7932 35.3149 32.7426 35.1409 32.7396" fill="#26245D"/>
<path d="M43.6286 18.3462C43.52 18.7889 43.5701 18.839 44.0212 18.814C44.2763 18.8118 44.5244 18.7301 44.731 18.5804C44.9376 18.4307 45.0925 18.2204 45.174 17.9786L45.2492 17.8115C45.2777 17.8599 45.3028 17.9101 45.3244 17.9619C45.3601 18.1476 45.357 18.3387 45.3153 18.5232C45.2736 18.7077 45.1941 18.8815 45.0819 19.0337C44.9696 19.186 44.8271 19.3133 44.6633 19.4078C44.4994 19.5022 44.3178 19.5617 44.1298 19.5825C43.8491 19.6046 43.5667 19.5792 43.2944 19.5074C43.0271 19.4489 42.8433 19.4656 42.7347 19.7329C42.7056 19.7625 42.675 19.7903 42.6428 19.8165C42.4381 19.5843 42.3174 19.2901 42.3003 18.9811C42.305 18.6989 42.3443 18.4183 42.4172 18.1457C42.4172 18.1457 42.5843 18.0371 42.6177 18.0621C42.8837 18.2601 43.2162 18.347 43.545 18.3044C43.5781 18.2979 43.6122 18.2979 43.6453 18.3044" fill="#26245D"/>
<path d="M44.2049 28.8138C44.5998 28.8835 44.9582 29.0882 45.2188 29.393C45.4794 29.6978 45.6259 30.0837 45.6334 30.4846C45.6164 30.5943 45.5779 30.6996 45.5202 30.7944C45.4626 30.8893 45.3867 30.9718 45.2971 31.0374C45.2076 31.1029 45.1059 31.1502 44.9981 31.1765C44.8902 31.2027 44.7782 31.2075 44.6685 31.1905C44.5588 31.1735 44.4535 31.1351 44.3587 31.0774C44.2638 31.0197 44.1813 30.9439 44.1157 30.8543C44.0502 30.7647 44.0029 30.663 43.9767 30.5552C43.9504 30.4473 43.9456 30.3353 43.9626 30.2256V30.1504C44.1773 29.7339 44.245 29.257 44.1548 28.7971M45.1572 29.9834C45.1394 29.8944 45.1054 29.8095 45.057 29.7328C44.9477 29.6264 44.8304 29.5286 44.7061 29.4404L44.5307 29.7912C44.5221 29.8466 44.5221 29.9029 44.5307 29.9583C44.5183 30.0059 44.5165 30.0556 44.5255 30.1039C44.5346 30.1522 44.5541 30.198 44.5828 30.2379C44.6116 30.2777 44.6487 30.3108 44.6917 30.3347C44.7347 30.3586 44.7824 30.3727 44.8314 30.376C45.0152 30.376 45.1906 30.234 45.199 29.9834" fill="#26245D"/>
<path d="M29.5776 21.195C29.7029 20.8859 29.8283 20.5601 29.9703 20.2427C29.9941 20.214 30.0256 20.1925 30.061 20.1807C30.0964 20.1689 30.1344 20.1672 30.1708 20.1758C30.4722 20.267 30.73 20.4649 30.8961 20.7324C31.0622 21 31.1251 21.3189 31.073 21.6294C31.0537 21.7563 30.9948 21.8738 30.9048 21.9653C30.8149 22.0568 30.6983 22.1176 30.5717 22.139C30.4298 22.1732 30.2808 22.1617 30.1458 22.1062C30.0108 22.0507 29.8967 21.954 29.8199 21.8299C29.7233 21.6161 29.6424 21.3955 29.5776 21.17" fill="#26245D"/>
<path d="M45.5834 35.2211C45.2993 35.1626 45.0989 35.1375 44.8984 35.0874C44.6979 35.0373 44.5308 34.9454 44.5224 34.6948C44.5097 34.5843 44.5329 34.4727 44.5886 34.3764C44.6443 34.2801 44.7294 34.2043 44.8315 34.1601C45.0958 34.048 45.3799 33.9902 45.6669 33.9902C45.954 33.9902 46.2381 34.048 46.5023 34.1601C46.6026 34.2019 46.6694 34.3857 46.7028 34.5194C46.7278 34.6091 46.7186 34.705 46.6769 34.7884C46.6352 34.8717 46.5641 34.9366 46.4772 34.9705C46.1765 35.0791 45.8674 35.1626 45.6419 35.2461" fill="#26245D"/>
<path d="M42.7012 17.2685C42.6772 17.155 42.6771 17.0377 42.7009 16.9242C42.7247 16.8106 42.7719 16.7032 42.8395 16.6089C42.9071 16.5146 42.9936 16.4354 43.0934 16.3764C43.1933 16.3174 43.3044 16.2798 43.4196 16.266C43.7712 16.2109 44.1312 16.2694 44.4472 16.4331C44.5725 16.4919 44.7098 16.5205 44.8481 16.5167C44.9651 16.5167 45.0319 16.5167 45.0236 16.6921C45.0286 17.0892 44.9088 17.4778 44.6811 17.8032C44.5725 17.9535 44.4639 17.9869 44.3219 17.8032C44.2535 17.7321 44.1809 17.6652 44.1047 17.6027C43.9459 17.4857 43.8206 17.3855 44.0044 17.1766C44.1882 16.9678 44.0044 16.9427 43.8791 16.8926C43.7191 16.8247 43.5431 16.8036 43.3716 16.8317C43.2001 16.8597 43.04 16.9359 42.9101 17.0513L42.7012 17.2351" fill="#26245D"/>
<path d="M28.9593 17.218C28.9593 17.7861 28.834 17.8696 28.291 17.6858C28.0512 17.6508 27.8329 17.5281 27.6786 17.3413C27.5242 17.1545 27.4447 16.9171 27.4556 16.675C27.4567 16.576 27.4819 16.4788 27.529 16.3917C27.5761 16.3046 27.6437 16.2303 27.7259 16.1752C27.8082 16.1201 27.9026 16.0859 28.001 16.0754C28.0995 16.065 28.199 16.0787 28.291 16.1153C28.508 16.2002 28.6911 16.3542 28.8118 16.5535C28.9326 16.7528 28.9844 16.9863 28.9593 17.218Z" fill="#26245D"/>
<path d="M52.4839 16.166C52.6019 16.1976 52.7032 16.2733 52.767 16.3775C52.8307 16.4816 52.852 16.6063 52.8264 16.7257C52.7777 16.9902 52.6722 17.241 52.5173 17.4609C52.2986 17.736 52.0139 17.9514 51.6897 18.0872C51.3655 18.223 51.0123 18.2748 50.6628 18.2378C50.4122 18.2378 50.2033 18.0791 50.2117 17.937C50.22 17.795 50.4623 17.6363 50.6795 17.6029C50.9347 17.5845 51.187 17.5368 51.4313 17.4609C51.7235 17.3885 51.9843 17.2231 52.1742 16.9895C52.3641 16.7559 52.4728 16.4668 52.4839 16.166Z" fill="#26245D"/>
<path d="M46.285 29.8582C46.486 29.8805 46.6781 29.9536 46.8432 30.0704C47.0083 30.1873 47.1411 30.3443 47.229 30.5265C47.2747 30.6231 47.2968 30.7291 47.2937 30.8359C47.2905 30.9427 47.2621 31.0473 47.2108 31.141C47.1594 31.2347 47.0866 31.315 46.9983 31.3751C46.91 31.4353 46.8087 31.4737 46.7027 31.4872C46.6051 31.5031 46.5051 31.4933 46.4125 31.4588C46.3199 31.4242 46.2379 31.3661 46.1746 31.2902C46.1114 31.2143 46.069 31.1231 46.0517 31.0258C46.0344 30.9285 46.0429 30.8284 46.0761 30.7353C46.1513 30.4513 46.2098 30.1672 46.285 29.8999" fill="#26245D"/>
<path d="M45.383 24.3273C45.2124 24.3273 45.0488 24.2595 44.9281 24.1389C44.8075 24.0182 44.7397 23.8546 44.7397 23.684C44.7397 23.5134 44.8075 23.3498 44.9281 23.2292C45.0488 23.1085 45.2124 23.0408 45.383 23.0408C45.553 23.0471 45.7142 23.118 45.8337 23.2391C45.9533 23.3602 46.0221 23.5223 46.0262 23.6924C46.016 23.8603 45.9435 24.0183 45.8231 24.1357C45.7026 24.253 45.5427 24.3214 45.3746 24.3273" fill="#26245D"/>
<path d="M35.3662 14.8544L35.834 15.1551C36.1682 15.3974 36.5107 15.6396 36.8365 15.9069C36.9656 15.9993 37.053 16.1389 37.0796 16.2954C37.1062 16.4519 37.0699 16.6125 36.9785 16.7423C36.9033 16.8843 36.778 16.9512 36.6694 16.8092C36.1628 16.2814 35.7326 15.6853 35.3913 15.0381C35.3849 14.9715 35.3849 14.9043 35.3913 14.8376" fill="#26245D"/>
<path d="M50.1108 16.4998C50.587 16.3828 51.0381 16.2492 51.5059 16.1489C51.6061 16.1489 51.7983 16.1489 51.84 16.2575C51.8545 16.3158 51.8544 16.3767 51.8398 16.435C51.8253 16.4932 51.7967 16.547 51.7565 16.5917C51.6205 16.743 51.4544 16.8642 51.2688 16.9477C51.0832 17.0311 50.8823 17.0749 50.6788 17.0762C50.2612 17.0762 50.0774 16.8841 50.1108 16.4998Z" fill="#26245D"/>
<path d="M45.45 21.237C45.2949 21.237 45.1462 21.1754 45.0365 21.0657C44.9268 20.9561 44.8652 20.8073 44.8652 20.6522C44.8652 20.4971 44.9268 20.3484 45.0365 20.2387C45.1462 20.1291 45.2949 20.0675 45.45 20.0675C45.6031 20.0651 45.7512 20.122 45.8634 20.2263C45.9755 20.3306 46.0429 20.4743 46.0515 20.6272C46.0537 20.7853 45.9936 20.9379 45.8842 21.052C45.7748 21.1662 45.6248 21.2326 45.4667 21.237" fill="#26245D"/>
<path d="M44.2385 21.17C44.3109 21.1666 44.3833 21.1776 44.4515 21.2022C44.5197 21.2269 44.5823 21.2647 44.6359 21.3136C44.6894 21.3625 44.7328 21.4215 44.7635 21.4871C44.7942 21.5528 44.8117 21.6239 44.8149 21.6963C44.8151 21.8449 44.7578 21.9879 44.655 22.0953C44.5523 22.2027 44.4121 22.2663 44.2636 22.2727C44.1873 22.2762 44.1111 22.2639 44.0397 22.2368C43.9683 22.2097 43.9032 22.1683 43.8484 22.115C43.7937 22.0618 43.7504 21.998 43.7212 21.9274C43.692 21.8568 43.6776 21.781 43.6788 21.7047C43.6775 21.6319 43.6913 21.5597 43.7193 21.4926C43.7473 21.4255 43.7889 21.3649 43.8415 21.3147C43.8941 21.2644 43.9565 21.2256 44.0248 21.2007C44.0932 21.1758 44.1659 21.1654 44.2385 21.17Z" fill="#26245D"/>
<path d="M42.8852 22.8826C42.8176 22.8838 42.7505 22.8712 42.688 22.8454C42.6255 22.8195 42.569 22.7812 42.522 22.7326C42.475 22.684 42.4385 22.6263 42.4147 22.563C42.391 22.4997 42.3805 22.4322 42.3839 22.3647C42.3859 22.2286 42.4397 22.0983 42.5344 22.0005C42.6291 21.9027 42.7576 21.8447 42.8935 21.8384C43.0317 21.8447 43.1623 21.9036 43.2585 22.003C43.3548 22.1023 43.4095 22.2347 43.4115 22.373C43.4104 22.441 43.3959 22.5082 43.3689 22.5706C43.3418 22.633 43.3028 22.6895 43.2539 22.7368C43.205 22.7842 43.1473 22.8214 43.084 22.8464C43.0208 22.8714 42.9532 22.8837 42.8852 22.8826Z" fill="#26245D"/>
<path d="M27.6308 18.0539C27.5105 18.139 27.3699 18.1908 27.2232 18.204C27.0765 18.2172 26.9289 18.1914 26.7954 18.1291C26.6786 18.0658 26.583 17.9694 26.5206 17.852C26.4582 17.7346 26.4318 17.6015 26.4446 17.4692C26.4484 17.3371 26.4867 17.2083 26.5556 17.0955C26.6244 16.9827 26.7215 16.8898 26.8372 16.8259C26.8299 17.0924 26.9067 17.3544 27.0566 17.5748C27.2065 17.7952 27.422 17.9629 27.6726 18.0539" fill="#26245D"/>
<path d="M42.7847 31.019C42.7882 30.9578 42.7882 30.8964 42.7847 30.8352C42.7847 30.5094 42.9267 30.4342 43.1941 30.6263C43.329 30.7395 43.4398 30.8787 43.5199 31.0357C43.5663 31.111 43.5809 31.2017 43.5606 31.2879C43.5402 31.374 43.4865 31.4486 43.4113 31.4951C43.2855 31.5694 43.1373 31.5961 42.9936 31.5703C42.8014 31.5202 42.7513 31.3364 42.7597 31.1526C42.768 30.9688 42.7597 31.0357 42.7597 31.019" fill="#26245D"/>
<path d="M29.034 21.0864C29.003 21.2856 29.0146 21.489 29.0678 21.6834C29.1211 21.8778 29.2149 22.0587 29.3431 22.2142C29.2729 22.2572 29.1944 22.285 29.1128 22.2956C29.0311 22.3062 28.9482 22.2995 28.8693 22.2758C28.7904 22.2522 28.7175 22.2121 28.6552 22.1583C28.5928 22.1045 28.5426 22.0382 28.5077 21.9636C28.4841 21.8752 28.4787 21.783 28.4918 21.6925C28.5049 21.6019 28.5362 21.515 28.5839 21.4369C28.6315 21.3588 28.6944 21.2912 28.7689 21.2382C28.8434 21.1851 28.9279 21.1477 29.0173 21.1282" fill="#26245D"/>
<path d="M47.0623 22.8069C47.0634 22.8603 47.0539 22.9133 47.0342 22.9629C47.0146 23.0125 46.9852 23.0577 46.9479 23.0959C46.9105 23.134 46.866 23.1643 46.8168 23.1849C46.7675 23.2056 46.7147 23.2163 46.6613 23.2162C46.5506 23.2162 46.4443 23.1722 46.366 23.0939C46.2877 23.0156 46.2437 22.9093 46.2437 22.7986C46.2437 22.6878 46.2877 22.5815 46.366 22.5032C46.4443 22.4249 46.5506 22.3809 46.6613 22.3809C46.7699 22.3809 46.874 22.424 46.9508 22.5008C47.0276 22.5775 47.0707 22.6816 47.0707 22.7902" fill="#26245D"/>
<path d="M27.8809 22.6571C27.5802 22.7824 27.2794 22.9411 26.9703 23.0413C26.6612 23.1416 26.561 22.9745 26.4357 22.6988C26.3773 22.5464 26.3435 22.3857 26.3354 22.2227C26.7615 22.749 27.3129 22.6654 27.8642 22.5735C27.8642 22.5735 27.8642 22.6236 27.8642 22.6571" fill="#26245D"/>
<path d="M27.4973 13.835C27.2981 14.1556 27.007 14.4089 26.6619 14.5618C26.5449 14.6286 26.4614 14.5618 26.4614 14.403C26.4447 14.3012 26.4589 14.1966 26.502 14.1029C26.5452 14.0091 26.6154 13.9303 26.7036 13.8767C26.819 13.8049 26.9521 13.7668 27.0879 13.7668C27.2238 13.7668 27.3569 13.8049 27.4722 13.8767" fill="#26245D"/>
<path d="M36.8447 12.1892C36.9115 12.2309 37.0702 12.2727 37.1037 12.3646C37.1389 12.5034 37.1179 12.6506 37.0452 12.7739C37.0452 12.8324 36.8196 12.8408 36.7194 12.7739C36.5537 12.7032 36.3967 12.6135 36.2516 12.5066C36.1095 12.3897 36.1513 12.2894 36.3184 12.2477L36.8447 12.1558" fill="#26245D"/>
<path d="M46.928 21.5124C46.9291 21.5599 46.9206 21.6071 46.9029 21.6512C46.8853 21.6953 46.8589 21.7353 46.8253 21.7689C46.7917 21.8025 46.7517 21.8289 46.7076 21.8466C46.6635 21.8642 46.6162 21.8727 46.5687 21.8716C46.4747 21.8697 46.3847 21.8326 46.3167 21.7677C46.2486 21.7027 46.2074 21.6146 46.2012 21.5207C46.2033 21.4735 46.2147 21.4272 46.2348 21.3845C46.2549 21.3417 46.2832 21.3033 46.3181 21.2715C46.353 21.2397 46.3939 21.2151 46.4383 21.1991C46.4827 21.1831 46.5299 21.176 46.5771 21.1782C46.6227 21.1747 46.6684 21.1808 46.7115 21.1961C46.7545 21.2114 46.7939 21.2356 46.827 21.2671C46.8601 21.2986 46.8862 21.3368 46.9036 21.379C46.921 21.4213 46.9293 21.4667 46.928 21.5124Z" fill="#26245D"/>
<path d="M43.0688 20.5848C43.1574 20.5848 43.2424 20.62 43.3051 20.6827C43.3677 20.7454 43.403 20.8304 43.403 20.919C43.403 21.0076 43.3677 21.0926 43.3051 21.1553C43.2424 21.2179 43.1574 21.2531 43.0688 21.2531C43.0218 21.2577 42.9743 21.2526 42.9294 21.238C42.8845 21.2234 42.8431 21.1996 42.8078 21.1683C42.7725 21.1369 42.744 21.0985 42.7243 21.0556C42.7045 21.0127 42.6938 20.9662 42.6929 20.919C42.694 20.874 42.7039 20.8297 42.7221 20.7885C42.7403 20.7474 42.7665 20.7102 42.7991 20.6792C42.8317 20.6482 42.87 20.6239 42.912 20.6077C42.954 20.5915 42.9988 20.5837 43.0437 20.5848" fill="#26245D"/>
<path d="M45.4831 21.9052C45.5703 21.9074 45.6532 21.9435 45.714 22.006C45.7749 22.0684 45.809 22.1521 45.8089 22.2393C45.8105 22.3081 45.7914 22.3758 45.754 22.4335C45.7166 22.4912 45.6627 22.5364 45.5993 22.563C45.5359 22.5897 45.4659 22.5966 45.3985 22.583C45.3311 22.5693 45.2693 22.5356 45.2213 22.4864C45.1733 22.4371 45.1412 22.3746 45.1292 22.3068C45.1173 22.2391 45.126 22.1693 45.1543 22.1066C45.1825 22.0439 45.229 21.9911 45.2877 21.9552C45.3463 21.9193 45.4144 21.9019 45.4831 21.9052Z" fill="#26245D"/>
<path d="M44.4474 23.0747C44.4442 23.1175 44.4326 23.1593 44.4132 23.1976C44.3938 23.2359 44.3671 23.27 44.3345 23.298C44.3019 23.3259 44.2641 23.3472 44.2232 23.3605C44.1824 23.3737 44.1393 23.3788 44.0965 23.3754C44.0531 23.3789 44.0095 23.3733 43.9685 23.3588C43.9275 23.3444 43.89 23.3214 43.8584 23.2914C43.8269 23.2615 43.802 23.2252 43.7855 23.1849C43.7689 23.1447 43.761 23.1014 43.7623 23.0579C43.7623 23.0123 43.7715 22.967 43.7892 22.9249C43.8069 22.8828 43.8329 22.8447 43.8656 22.8128C43.8983 22.7808 43.937 22.7558 43.9796 22.7391C44.0221 22.7224 44.0675 22.7143 44.1132 22.7154C44.2034 22.7236 44.2873 22.7648 44.349 22.8311C44.4107 22.8974 44.4457 22.9841 44.4474 23.0747Z" fill="#26245D"/>
<path d="M30.5042 18.6802C30.5902 18.6849 30.672 18.719 30.7359 18.7768C30.7997 18.8346 30.8418 18.9125 30.8551 18.9976C30.8431 19.0868 30.8037 19.1701 30.7424 19.2359C30.681 19.3018 30.6007 19.347 30.5126 19.3652C30.4229 19.3544 30.339 19.3154 30.2729 19.2539C30.2069 19.1923 30.1621 19.1114 30.145 19.0227C30.1531 18.9317 30.194 18.8468 30.2601 18.7837C30.3262 18.7207 30.413 18.6839 30.5042 18.6802Z" fill="#26245D"/>
<path d="M27.7473 21.6294C27.6753 21.7374 27.5714 21.8203 27.4502 21.8667C27.329 21.913 27.1964 21.9206 27.0707 21.8884C26.9577 21.8545 26.8596 21.783 26.7928 21.6858C26.726 21.5885 26.6943 21.4714 26.7031 21.3538L27.7473 21.6294Z" fill="#26245D"/>
<path d="M29.9621 18.4127C29.8755 18.4107 29.7929 18.376 29.7309 18.3156C29.6689 18.2551 29.6321 18.1734 29.6279 18.0869C29.6318 17.9966 29.6689 17.9108 29.7321 17.8461C29.7953 17.7813 29.8802 17.7422 29.9704 17.7361C30.058 17.7505 30.1384 17.7936 30.1989 17.8586C30.2593 17.9236 30.2965 18.0069 30.3046 18.0953C30.2983 18.1817 30.2594 18.2625 30.1958 18.3214C30.1323 18.3804 30.0487 18.413 29.9621 18.4127Z" fill="#26245D"/>
<path d="M47.0203 24.1352C47.016 24.2143 46.9816 24.2887 46.9241 24.3431C46.8666 24.3975 46.7904 24.4277 46.7112 24.4276C46.6682 24.4299 46.6251 24.4234 46.5846 24.4084C46.5441 24.3935 46.5071 24.3705 46.4759 24.3408C46.4446 24.3111 46.4197 24.2753 46.4027 24.2356C46.3857 24.196 46.377 24.1533 46.3771 24.1102C46.3759 24.0689 46.3831 24.0278 46.3982 23.9893C46.4132 23.9508 46.4358 23.9158 46.4646 23.8862C46.4934 23.8566 46.5279 23.8331 46.5659 23.817C46.604 23.801 46.6449 23.7927 46.6862 23.7927C46.7308 23.7927 46.7749 23.8016 46.816 23.8189C46.8571 23.8362 46.8943 23.8616 46.9254 23.8935C46.9566 23.9255 46.981 23.9633 46.9973 24.0048C47.0136 24.0463 47.0214 24.0907 47.0203 24.1352Z" fill="#26245D"/>
<path d="M45.9508 19.1229C46.0323 19.1205 46.1115 19.1495 46.1722 19.2039C46.2328 19.2584 46.2702 19.334 46.2766 19.4153C46.2746 19.5018 46.2399 19.5844 46.1794 19.6464C46.119 19.7084 46.0373 19.7452 45.9508 19.7494C45.8651 19.7473 45.7834 19.7123 45.7228 19.6516C45.6621 19.591 45.6271 19.5094 45.625 19.4236C45.6249 19.3819 45.6334 19.3406 45.65 19.3024C45.6667 19.2642 45.6911 19.2299 45.7218 19.2016C45.7524 19.1733 45.7886 19.1517 45.828 19.1381C45.8674 19.1246 45.9093 19.1194 45.9508 19.1229Z" fill="#26245D"/>
<path d="M44.0714 20.6851C44.0297 20.6874 43.988 20.6814 43.9486 20.6675C43.9092 20.6536 43.873 20.6321 43.8419 20.6041C43.8109 20.5762 43.7857 20.5424 43.7677 20.5047C43.7498 20.467 43.7394 20.4261 43.7373 20.3844C43.735 20.3431 43.7411 20.3018 43.7551 20.2629C43.7691 20.224 43.7907 20.1883 43.8188 20.1579C43.8468 20.1276 43.8807 20.1031 43.9183 20.0861C43.956 20.069 43.9967 20.0597 44.038 20.0586C44.0818 20.0551 44.1257 20.0608 44.1672 20.0752C44.2087 20.0896 44.2467 20.1124 44.2789 20.1422C44.3111 20.1721 44.3367 20.2082 44.3542 20.2485C44.3717 20.2887 44.3807 20.3322 44.3805 20.3761C44.3805 20.5765 44.2385 20.6517 44.0714 20.6851Z" fill="#26245D"/>
<path d="M40.5793 47.1086C40.5453 46.4065 40.7713 45.7164 41.2142 45.1705C41.3221 44.9789 41.4873 44.826 41.6865 44.7331C41.8858 44.6402 42.1092 44.612 42.3252 44.6526C42.8098 44.7946 42.9601 45.2373 43.0353 45.6884C43.0692 45.8716 43.0547 46.0605 42.9932 46.2363C42.9316 46.4121 42.8252 46.5688 42.6845 46.6909C42.4422 46.9081 42.1916 47.1086 41.9326 47.3174C41.6736 47.5263 41.7822 47.5514 41.9326 47.6516C42.0756 47.7217 42.2328 47.7581 42.3921 47.7581C42.5514 47.7581 42.7085 47.7217 42.8515 47.6516C43.292 47.4921 43.654 47.1689 43.8624 46.7494C44.1297 46.2649 44.3385 45.7469 44.5724 45.2373C44.6284 45.089 44.6983 44.9464 44.7813 44.8113C44.8119 44.7606 44.8532 44.7172 44.9022 44.684C44.9512 44.6509 45.0069 44.6287 45.0653 44.6191C45.1321 44.6191 45.2324 44.7695 45.2658 44.8698C45.4997 45.5882 45.7169 46.315 45.9592 47.0418C46.004 47.1828 46.0717 47.3154 46.1597 47.4344C46.1939 47.505 46.2473 47.5646 46.3138 47.6062C46.3802 47.6479 46.4571 47.67 46.5356 47.67C46.6141 47.67 46.6909 47.6479 46.7574 47.6062C46.8239 47.5646 46.8773 47.505 46.9115 47.4344C47.1414 47.1124 47.2427 46.7161 47.1956 46.3233C47.1956 46.1145 47.1287 45.9056 47.0953 45.7051C47.0618 45.5265 47.066 45.3427 47.1077 45.1658C47.1495 44.9888 47.2277 44.8225 47.3376 44.6776C47.4301 44.5715 47.544 44.4862 47.6717 44.427C47.8973 44.3184 48.0644 44.427 48.0644 44.6526C48.069 45.1085 48.0355 45.5639 47.9641 46.0142C47.8251 46.6306 47.5384 47.204 47.1287 47.685C46.9146 47.9496 46.647 48.166 46.3435 48.3199C46.2447 48.383 46.1327 48.4224 46.0162 48.4351C45.8997 48.4477 45.7818 48.4333 45.6718 48.3928C45.5618 48.3524 45.4626 48.2871 45.3821 48.202C45.3015 48.1168 45.2417 48.0143 45.2073 47.9022C45.0904 47.6349 45.0068 47.3509 44.9066 47.0668C44.8847 46.9884 44.8538 46.9127 44.8147 46.8413C44.7061 46.6658 44.5641 46.6324 44.4221 46.7828C44.2801 46.9332 44.0545 47.1754 43.8791 47.3759C43.6464 47.6666 43.3582 47.9079 43.0311 48.0858C42.7041 48.2637 42.3448 48.3745 41.9744 48.4118C41.7954 48.4404 41.6123 48.4298 41.4378 48.3808C41.2633 48.3317 41.1015 48.2454 40.9636 48.1278C40.8992 48.0702 40.816 48.0384 40.7297 48.0384C40.6434 48.0384 40.5601 48.0702 40.4958 48.1278C40.3444 48.2154 40.185 48.2882 40.0196 48.345C39.7799 48.4398 39.5182 48.4643 39.2651 48.4154C39.0121 48.3666 38.7782 48.2465 38.5911 48.0693C38.0815 47.6182 38.165 47.5681 37.4716 47.9941C37.1387 48.197 36.7746 48.3437 36.394 48.4285C36.1675 48.4846 35.9287 48.4612 35.7173 48.3624C35.506 48.2636 35.335 48.0953 35.2328 47.8855C35.1242 47.7101 35.0156 47.5263 34.8903 47.3592C34.765 47.1921 34.5979 47.1504 34.4308 47.3592C34.2638 47.5681 33.963 47.969 33.7124 48.2614C33.4618 48.5538 33.2195 48.5204 33.019 48.2113C32.8185 47.9022 32.6348 47.5179 32.451 47.1754C32.3424 46.9749 32.2338 46.7744 32.1168 46.5907C32.0842 46.5126 32.0325 46.4441 31.9663 46.3914C31.9001 46.3387 31.8216 46.3037 31.7382 46.2895C31.6549 46.2754 31.5692 46.2825 31.4894 46.3103C31.4095 46.3381 31.338 46.3857 31.2814 46.4486C30.6131 47.0083 29.9448 47.5848 29.2765 48.1194C29.1863 48.2188 29.0787 48.3009 28.9591 48.3617C28.8839 48.3617 28.7335 48.4202 28.6917 48.3617C28.6544 48.3214 28.6255 48.274 28.6069 48.2224C28.5882 48.1707 28.5801 48.1158 28.5831 48.0609C28.6917 47.5931 28.817 47.1337 28.9423 46.6742C29.0677 46.2147 29.1512 45.9056 29.2598 45.513C29.2765 45.4329 29.3077 45.3565 29.3517 45.2875C29.4492 45.2049 29.5525 45.1296 29.6608 45.0619C29.7246 45.1441 29.7779 45.2339 29.8195 45.3292C29.9114 45.5631 29.9699 45.8054 30.0534 46.0393C30.0534 46.1395 30.1787 46.2732 30.2623 46.2899C30.3458 46.3066 30.4711 46.2064 30.5379 46.1312C30.7969 45.8305 31.0225 45.5047 31.2731 45.2123C31.4275 45.0356 31.595 44.8708 31.7743 44.7194C32.0082 44.5189 32.1837 44.5607 32.2923 44.8447C32.4009 45.1287 32.593 45.6801 32.7517 46.0644C32.862 46.3697 32.9903 46.6682 33.136 46.9582C33.1653 47.0623 33.2254 47.1551 33.3085 47.2243C33.3916 47.2935 33.4938 47.3359 33.6015 47.3459C33.7091 47.3558 33.8173 47.3329 33.9117 47.2801C34.0061 47.2273 34.0822 47.1471 34.1301 47.0501C34.2801 46.8125 34.3928 46.5533 34.4643 46.2816C34.5645 45.9391 34.6146 45.5798 34.7065 45.2373C34.729 45.1258 34.7865 45.0243 34.8706 44.9477C34.9548 44.871 35.0612 44.8233 35.1743 44.8113C35.2872 44.8293 35.3898 44.8873 35.4634 44.9748C35.537 45.0622 35.5768 45.1732 35.5753 45.2875C35.587 45.5953 35.5646 45.9035 35.5085 46.2064C35.4199 46.4435 35.4113 46.7032 35.4839 46.9457C35.5565 47.1882 35.7064 47.4004 35.9107 47.5498C36.1151 47.6993 36.3627 47.7779 36.6158 47.7736C36.8689 47.7694 37.1137 47.6825 37.3129 47.5263C37.3881 47.4762 37.4549 47.4093 37.5301 47.3509C37.6465 47.2711 37.7307 47.1523 37.7674 47.0161C37.8042 46.8798 37.7911 46.7349 37.7306 46.6074C37.2758 45.2448 37.3172 43.7654 37.8476 42.4304C37.9552 42.1591 38.1077 41.9078 38.2987 41.6869C38.37 41.6039 38.4585 41.5373 38.558 41.4917C38.6575 41.446 38.7656 41.4224 38.8751 41.4224C38.9846 41.4224 39.0927 41.446 39.1922 41.4917C39.2917 41.5373 39.3802 41.6039 39.4515 41.6869C39.6732 41.9112 39.8066 42.2077 39.8274 42.5223C39.9312 43.358 39.8745 44.2057 39.6604 45.0201C39.4975 45.5272 39.2849 46.0169 39.0255 46.4821C38.7999 46.9666 38.8083 47.1086 39.2093 47.4511C39.3905 47.6091 39.5965 47.7361 39.8191 47.827C40.2869 48.0108 40.6545 47.7686 40.5793 47.284V47.1086ZM39.3847 43.5164C39.3972 43.3747 39.3972 43.2321 39.3847 43.0904C39.3652 42.9183 39.3143 42.7512 39.2343 42.5975C39.212 42.5287 39.1684 42.4687 39.1099 42.4261C39.0514 42.3836 38.9809 42.3607 38.9085 42.3607C38.8362 42.3607 38.7656 42.3836 38.7071 42.4261C38.6486 42.4687 38.605 42.5287 38.5827 42.5975C38.4822 42.7808 38.4091 42.9778 38.3655 43.1823C38.236 43.9846 38.236 44.8025 38.3655 45.6049C38.3655 45.7386 38.5409 45.8555 38.6412 45.9808C38.7414 45.8889 38.8835 45.8054 38.9419 45.6884C39.267 45.0085 39.4273 44.2615 39.4097 43.5081M42.3252 46.0978C42.3252 46.0477 42.3252 45.9641 42.3252 45.8722C42.3188 45.7749 42.2836 45.6816 42.2241 45.6043C42.1646 45.527 42.0835 45.469 41.9911 45.4378C41.8975 45.4142 41.799 45.4191 41.7082 45.4518C41.6174 45.4846 41.5385 45.5437 41.4815 45.6216C41.328 45.8327 41.2419 46.0852 41.2345 46.3461C41.227 46.607 41.2986 46.864 41.4397 47.0835C41.48 47.1165 41.5277 47.139 41.5786 47.1492C41.6296 47.1594 41.6823 47.157 41.7321 47.142C41.9206 47.0431 42.0768 46.8921 42.1819 46.7069C42.2871 46.5218 42.3368 46.3104 42.3252 46.0978Z" fill="#26245D"/>
<path d="M28.2072 44.4102C28.1389 45.0872 28.0301 45.7595 27.8814 46.4234C27.7651 46.9549 27.4933 47.4396 27.1005 47.816C26.7078 48.1924 26.2119 48.4434 25.676 48.537C25.0511 48.6481 24.4076 48.5113 23.882 48.1557C23.3564 47.8001 22.99 47.2536 22.8607 46.6323C22.707 46.0069 22.6646 45.3593 22.7354 44.7193C22.8681 43.9738 23.0467 43.2373 23.2701 42.5138C23.3619 42.1797 23.671 42.0961 23.9801 42.0627C24.2892 42.0293 24.2642 42.2047 24.2307 42.4387C24.1305 43.0485 24.0219 43.6583 23.9384 44.2681C23.8186 45.0734 23.8412 45.8934 24.0052 46.6908C24.039 47.002 24.1665 47.2957 24.3708 47.5329C24.5752 47.7701 24.8468 47.9396 25.1497 48.019C25.3876 48.0939 25.6423 48.0965 25.8817 48.0266C26.1211 47.9567 26.3344 47.8175 26.4946 47.6264C26.7491 47.3214 26.9471 46.9734 27.0794 46.5989C27.4508 45.5905 27.4508 44.4829 27.0794 43.4745C26.9873 43.3009 26.9391 43.1072 26.9391 42.9106C26.9391 42.714 26.9873 42.5204 27.0794 42.3468C27.2131 42.1379 27.3718 41.9625 27.6391 42.0042C27.9064 42.046 27.99 42.2799 28.0151 42.5055C28.0819 43.1153 28.1404 43.7168 28.2155 44.4185" fill="#26245D"/>
<path d="M48.6075 46.9329C48.5854 46.3208 48.7975 45.7232 49.2007 45.2621C49.3946 45.0572 49.6314 44.8974 49.894 44.7943C50.1362 44.6913 50.4088 44.6859 50.6548 44.7794C50.9009 44.8728 51.1012 45.0577 51.2139 45.2955C51.3506 45.519 51.3998 45.7852 51.352 46.0428C51.3042 46.3003 51.1628 46.5311 50.955 46.6906C50.6266 46.8848 50.2862 47.0578 49.9358 47.2086C49.8281 47.2765 49.7274 47.3549 49.6351 47.4425C49.727 47.5511 49.7938 47.6931 49.9107 47.7599C50.0564 47.8361 50.2184 47.8758 50.3827 47.8758C50.5471 47.8758 50.709 47.8361 50.8547 47.7599C51.3267 47.5511 51.7171 47.193 51.9658 46.7408C52.183 46.3314 52.3417 45.9054 52.5255 45.4543C52.583 45.2905 52.6528 45.1313 52.7343 44.9781C52.7845 44.9029 52.9014 44.8695 52.9933 44.811C53.0434 44.9029 53.127 44.9781 53.1437 45.0783C53.2105 45.3958 53.2523 45.7216 53.3024 46.039C53.3319 46.2625 53.3794 46.4832 53.4444 46.699C53.4444 46.8159 53.6031 46.8995 53.6867 46.9914C53.7814 46.9259 53.8635 46.8438 53.9289 46.7491C54.1294 46.3648 54.2965 45.9639 54.4887 45.5712C54.7291 45.0613 55.1275 44.6424 55.6248 44.3766C55.8171 44.2721 56.0325 44.2173 56.2513 44.2173C56.4702 44.2173 56.6856 44.2721 56.8779 44.3766C57.0524 44.4856 57.1849 44.6505 57.2538 44.8444C57.2895 44.9653 57.2784 45.0951 57.2226 45.2081C57.1669 45.3212 57.0707 45.409 56.9531 45.4543C56.8328 45.5056 56.6987 45.5146 56.5727 45.4797C56.4467 45.4447 56.3363 45.368 56.2597 45.2621C55.9673 44.8778 55.8253 44.8611 55.4243 45.1535C55.0842 45.4419 54.8155 45.805 54.639 46.2145C54.3466 46.8159 54.0626 47.4174 53.8036 48.0189C53.7117 48.186 53.6449 48.4449 53.3776 48.4115C53.1103 48.3781 53.1019 48.1191 53.0434 47.927C52.9432 47.5845 52.868 47.2336 52.7678 46.8911C52.7256 46.7873 52.6663 46.6913 52.5923 46.6071C52.5171 46.6823 52.4002 46.7324 52.3584 46.8243C52.0744 47.4571 51.5609 47.9587 50.9216 48.2277C50.6179 48.3464 50.2952 48.4087 49.9692 48.4115C49.7951 48.4195 49.6212 48.3918 49.4582 48.3301C49.2952 48.2684 49.1465 48.174 49.0213 48.0527C48.8961 47.9315 48.797 47.7859 48.7302 47.6249C48.6633 47.4639 48.6301 47.291 48.6326 47.1167C48.6326 47.0331 48.6326 46.9496 48.6326 46.8661M49.3176 46.3398C49.3093 46.4622 49.3093 46.585 49.3176 46.7073C49.318 46.74 49.3263 46.7721 49.3418 46.8008C49.3574 46.8295 49.3797 46.854 49.4069 46.8721C49.4341 46.8902 49.4652 46.9014 49.4977 46.9047C49.5302 46.908 49.563 46.9034 49.5933 46.8911C49.7941 46.854 49.9828 46.7684 50.1429 46.6417C50.3031 46.5151 50.4299 46.3512 50.5122 46.1643C50.5752 46.0153 50.5819 45.8485 50.5312 45.6949C50.4805 45.5413 50.3758 45.4113 50.2365 45.329C50.1688 45.2955 50.095 45.276 50.0196 45.2718C49.9441 45.2676 49.8686 45.2787 49.7976 45.3045C49.7265 45.3302 49.6615 45.3701 49.6063 45.4217C49.551 45.4733 49.5069 45.5355 49.4763 45.6046C49.3827 45.8314 49.31 46.0663 49.2591 46.3064" fill="#26245D"/>
<path d="M34.8488 42.3304C34.8399 42.2306 34.854 42.13 34.8898 42.0363C34.9257 41.9427 34.9824 41.8584 35.0557 41.79C35.129 41.7215 35.2169 41.6707 35.3128 41.6413C35.4086 41.6119 35.5099 41.6047 35.609 41.6204C35.7256 41.6389 35.8309 41.7009 35.9037 41.7939C35.9766 41.8868 36.0115 42.0039 36.0016 42.1216C35.9953 42.2803 35.9584 42.4363 35.893 42.5811C35.842 42.7047 35.7507 42.8074 35.6339 42.8727C35.5172 42.9379 35.3818 42.9617 35.2498 42.9403C35.1201 42.905 35.0078 42.8235 34.9339 42.7112C34.8601 42.5989 34.8298 42.4635 34.8488 42.3304Z" fill="#26245D"/>
<path d="M84.9999 20.1274C88.3112 20.1274 89.5444 20.6518 90.5058 21.4772C91.185 22.0878 91.7248 22.8374 92.0884 23.6752C92.452 24.513 92.6309 25.4193 92.613 26.3324C92.6335 27.2258 92.4777 28.1145 92.1545 28.9476C91.8312 29.7807 91.3469 30.5419 90.7291 31.1877C89.4959 32.2558 88.2821 32.7802 85.5049 32.7802H83.7182V38.6065H79.1445V20.1274H84.9999ZM83.7182 28.6824H85.3786C85.9811 28.7149 86.5835 28.6189 87.146 28.4008C87.5044 28.2276 87.801 27.9484 87.9956 27.601C88.1901 27.2536 88.2732 26.8548 88.2335 26.4587C88.2848 26.055 88.2013 25.6456 87.9958 25.2944C87.7903 24.9431 87.4744 24.6697 87.0974 24.5166C86.4954 24.2946 85.8542 24.1987 85.2136 24.235H83.7182V28.6824Z" fill="#26245D"/>
<path d="M95.6138 20.1274H101.44C104.246 20.1274 105.985 20.6518 106.985 21.4481C108.111 22.5026 108.85 23.9054 109.082 25.4307C109.315 26.956 109.027 28.5151 108.267 29.8573C107.703 30.7246 106.891 31.4014 105.936 31.7994L109.636 38.5968H104.926L100.255 29.6631H101.013C101.956 29.7599 102.909 29.6024 103.771 29.2067C104.098 28.9271 104.355 28.5756 104.524 28.1797C104.692 27.7838 104.767 27.3543 104.742 26.9248C104.755 26.5066 104.665 26.0915 104.478 25.7169C104.292 25.3423 104.015 25.0199 103.673 24.7788C103.113 24.4451 102.471 24.2706 101.819 24.2738H100.178V38.6356H95.6138V20.1274Z" fill="#26245D"/>
<path d="M111.597 29.5759C111.589 27.7035 112.138 25.871 113.174 24.3111C114.209 22.7512 115.685 21.5342 117.414 20.8146C119.142 20.0949 121.046 19.9051 122.882 20.2692C124.719 20.6334 126.406 21.535 127.729 22.8597C129.053 24.1843 129.953 25.8723 130.315 27.7094C130.677 29.5464 130.485 31.4496 129.764 33.1775C129.042 34.9053 127.824 36.3799 126.263 37.4139C124.702 38.448 122.869 38.9949 120.996 38.9853C119.761 38.9866 118.537 38.744 117.396 38.2715C116.254 37.7989 115.217 37.1058 114.344 36.2316C113.47 35.3575 112.778 34.3196 112.307 33.1775C111.836 32.0354 111.594 30.8114 111.597 29.5759ZM116.161 29.3525C116.161 32.1783 118.025 34.8292 121.094 34.8292C124.337 34.8292 125.949 31.7802 125.949 29.4011C125.949 27.022 124.376 23.9244 121.094 23.9244C117.811 23.9244 116.238 26.7307 116.238 29.3331L116.161 29.3525Z" fill="#26245D"/>
<path d="M134.038 20.1274H143.807V24.2738H138.602V27.4297H143.583V31.5858H138.573V38.6356H134.009L134.038 20.1274Z" fill="#26245D"/>
<path d="M147.361 20.1274H157.489V24.2738H151.925V27.187H157.324V31.3333H151.925V34.5086H157.489V38.6647H147.361V20.1274Z" fill="#26245D"/>
<path d="M164.742 32.5083C164.742 34.664 166.023 35.033 166.606 35.033C166.837 35.0304 167.065 34.9825 167.277 34.8918C167.489 34.8011 167.682 34.6695 167.843 34.5045C168.005 34.3395 168.132 34.1443 168.218 33.9301C168.304 33.7158 168.347 33.4868 168.344 33.256C168.344 32.2849 167.596 31.9839 164.839 30.7798C163.586 30.2554 160.459 28.9542 160.459 25.4779C160.459 21.7491 163.732 19.7778 166.723 19.7778C169.189 19.7778 172.675 21.079 172.743 25.5264H168.228C168.131 24.905 167.985 23.73 166.577 23.73C166.379 23.7222 166.182 23.7534 165.996 23.822C165.811 23.8905 165.64 23.9949 165.495 24.1293C165.35 24.2637 165.233 24.4254 165.15 24.6051C165.067 24.7849 165.021 24.9791 165.013 25.1768C165.013 26.0314 165.489 26.2547 168.713 27.7501C171.937 29.2455 172.889 30.906 172.889 33.0617C172.889 35.9749 171.393 38.9851 166.655 38.9851C161.916 38.9851 160.081 36.1303 160.197 32.5083H164.742Z" fill="#26245D"/>
<path d="M179.686 32.5083C179.686 34.664 180.968 35.033 181.551 35.033C181.782 35.0304 182.01 34.9825 182.222 34.8918C182.434 34.8011 182.627 34.6695 182.788 34.5045C182.949 34.3395 183.077 34.1443 183.163 33.9301C183.249 33.7158 183.292 33.4868 183.289 33.256C183.289 32.2849 182.541 31.9839 179.784 30.7798C178.531 30.2554 175.404 28.9542 175.404 25.4779C175.404 21.7491 178.677 19.7778 181.667 19.7778C184.134 19.7778 187.62 21.079 187.688 25.5264H183.172C183.075 24.905 182.93 23.73 181.522 23.73C181.324 23.7222 181.127 23.7534 180.941 23.822C180.756 23.8905 180.585 23.9949 180.44 24.1293C180.295 24.2637 180.178 24.4254 180.095 24.6051C180.012 24.7849 179.966 24.9791 179.958 25.1768C179.958 26.0314 180.434 26.2547 183.648 27.7501C186.862 29.2455 187.833 30.906 187.833 33.0617C187.833 35.9749 186.338 38.9851 181.599 38.9851C176.861 38.9851 175.025 36.1303 175.142 32.5083H179.686Z" fill="#26245D"/>
<path d="M191.106 20.1274H195.67V38.6356H191.106V20.1274Z" fill="#26245D"/>
<path d="M199.224 29.576C199.216 27.7044 199.764 25.8727 200.799 24.3132C201.834 22.7537 203.309 21.5367 205.036 20.8165C206.764 20.0962 208.666 19.9053 210.502 20.2678C212.338 20.6304 214.025 21.53 215.349 22.8528C216.674 24.1755 217.575 25.8617 217.939 27.6974C218.304 29.5332 218.115 31.4358 217.396 33.164C216.678 34.8922 215.462 36.3681 213.904 37.4045C212.346 38.4409 210.514 38.9912 208.643 38.9854C207.406 38.988 206.182 38.7463 205.039 38.2744C203.896 37.8024 202.858 37.1094 201.984 36.2351C201.109 35.3609 200.416 34.3226 199.944 33.1798C199.472 32.0371 199.231 30.8123 199.233 29.576H199.224ZM203.797 29.3526C203.797 32.1784 205.662 34.8293 208.73 34.8293C211.974 34.8293 213.537 31.7802 213.537 29.4012C213.537 27.0221 211.974 23.9245 208.682 23.9245C205.39 23.9245 203.826 26.7308 203.826 29.3332L203.797 29.3526Z" fill="#26245D"/>
<path d="M232.473 31.411L232.376 20.1274H236.804V38.6356H232.842L225.996 27.4783L226.093 38.6356H221.714V20.1274H225.656L232.473 31.411Z" fill="#26245D"/>
<path d="M244.659 38.6356H239.717L246.796 20.1274H250.738L257.603 38.6356H252.603L251.758 35.9555H245.495L244.659 38.6356ZM248.544 25.7498L246.602 32.2073H250.544L248.544 25.7498Z" fill="#26245D"/>
<path d="M260.643 20.1274H265.217V34.4795H270.509V38.6356H260.643V20.1274Z" fill="#26245D"/>
<defs>
<linearGradient id="paint0_linear_938_1845" x1="146.501" y1="0" x2="146.501" y2="69.9084" gradientUnits="userSpaceOnUse">
<stop stop-color="#969696"/>
<stop offset="1" stop-color="#F8F8F8" stop-opacity="0.51"/>
</linearGradient>
</defs>
</svg>
