<svg width="25" height="25" viewBox="0 0 25 25" fill="none" xmlns="http://www.w3.org/2000/svg">
<path d="M24.3583 20.6495L19.2813 15.5725C20.3303 13.9915 20.9443 12.0985 20.9443 10.0635C20.9443 4.54948 16.4583 0.0634766 10.9443 0.0634766C5.43034 0.0634766 0.944336 4.54948 0.944336 10.0635C0.944336 15.5775 5.43034 20.0635 10.9443 20.0635C12.9793 20.0635 14.8723 19.4495 16.4533 18.4005L21.5303 23.4775C22.3103 24.2585 23.5783 24.2585 24.3583 23.4775C25.1393 22.6965 25.1393 21.4305 24.3583 20.6495ZM3.94434 10.0635C3.94434 6.20348 7.08434 3.06348 10.9443 3.06348C14.8043 3.06348 17.9443 6.20348 17.9443 10.0635C17.9443 13.9235 14.8043 17.0635 10.9443 17.0635C7.08434 17.0635 3.94434 13.9235 3.94434 10.0635Z" fill="#26245D"/>
</svg>
