<svg width="57" height="57" viewBox="0 0 57 57" fill="none" xmlns="http://www.w3.org/2000/svg">
<path d="M48.7143 8.53103C43.6 3.41795 36.5465 0.257812 28.7418 0.257812C20.9371 0.257812 13.8836 3.41795 8.76931 8.53103C3.65568 13.6459 0.496094 20.7149 0.496094 28.5035C0.496094 36.3083 3.65568 43.3617 8.76931 48.4765C13.8836 53.5902 20.9371 56.7499 28.7418 56.7499C36.5465 56.7499 43.6 53.5902 48.7143 48.4765C53.8279 43.3617 56.9881 36.3083 56.9881 28.5035C56.9881 20.7149 53.8279 13.6459 48.7143 8.53103Z" fill="url(#paint0_linear_461_2635)"/>
<path fill-rule="evenodd" clip-rule="evenodd" d="M29.753 19.1103C27.0058 20.253 21.5149 22.6182 13.2806 26.2057C11.9435 26.7374 11.2431 27.2576 11.1793 27.7662C11.0715 28.6259 12.148 28.9644 13.6139 29.4252C13.8133 29.4881 14.0199 29.553 14.2317 29.6218C15.6739 30.0907 17.6139 30.6391 18.6224 30.6608C19.5372 30.6805 20.5583 30.3035 21.6856 29.5293C29.3792 24.336 33.3506 21.711 33.5998 21.6544C33.7759 21.6145 34.0195 21.5643 34.1848 21.7111C34.3498 21.8579 34.3338 22.1359 34.3161 22.2105C34.2095 22.665 29.9839 26.5936 27.7972 28.6266C27.1155 29.2602 26.632 29.7098 26.5332 29.8124C26.3117 30.0426 26.0859 30.2601 25.8691 30.4692C24.5293 31.7607 23.5246 32.7293 25.9247 34.3111C27.0783 35.0711 28.0013 35.6996 28.9221 36.3267C29.9276 37.0116 30.9306 37.6947 32.2283 38.5454C32.559 38.7622 32.8746 38.9872 33.1823 39.2064C34.3526 40.0408 35.4041 40.7903 36.7029 40.6707C37.4578 40.6012 38.2374 39.8916 38.6333 37.775C39.5689 32.7726 41.4082 21.9339 41.8333 17.4675C41.8708 17.0761 41.8239 16.5753 41.7863 16.3555C41.7486 16.1357 41.67 15.8224 41.3842 15.5906C41.0457 15.316 40.5234 15.2581 40.2897 15.2622C39.2272 15.2809 37.5974 15.8477 29.753 19.1103Z" fill="white"/>
<defs>
<linearGradient id="paint0_linear_461_2635" x1="28.7421" y1="0.257812" x2="28.7421" y2="66.7732" gradientUnits="userSpaceOnUse">
<stop stop-color="#ACACAC"/>
<stop offset="1" stop-color="#4A4A4A" stop-opacity="0"/>
</linearGradient>
</defs>
</svg>
